<?xml version="1.0" encoding="utf-8"?>
<!-- Generator: Adobe Illustrator 16.2.1, SVG Export Plug-In . SVG Version: 6.00 Build 0)  -->
<!DOCTYPE svg PUBLIC "-//W3C//DTD SVG 1.1//EN" "http://www.w3.org/Graphics/SVG/1.1/DTD/svg11.dtd">
<svg version="1.1" id="Layer_1" xmlns="http://www.w3.org/2000/svg" xmlns:xlink="http://www.w3.org/1999/xlink" x="0px" y="0px"
	 width="170.079px" height="169.949px" viewBox="-23.273 -42.968 170.079 169.949"
	 enable-background="new -23.273 -42.968 170.079 169.949" xml:space="preserve">
<rect y="-19.713" stroke="#000000" stroke-width="49.3455" stroke-linejoin="round" stroke-miterlimit="10" width="123.534" height="123.439"/>
<g id="_x33__2_">
	<g>
		<path fill="#FFFFFF" d="M112.088,97.648c0.033,0.017,0.066,0.033,0.101,0.049C112.156,97.684,112.124,97.665,112.088,97.648z"/>
	</g>
	<g>
		<path fill="#FFFFFF" d="M112.661,97.881c0.088,0.029,0.18,0.051,0.271,0.075C112.84,97.934,112.749,97.909,112.661,97.881z"/>
	</g>
	<g>
		<path fill="#FFFFFF" d="M110.834,96.777c-0.133-0.122-0.267-0.24-0.393-0.381C110.569,96.532,110.702,96.657,110.834,96.777z"/>
	</g>
	<g>
		<path fill="#FFFFFF" d="M114.032,98.105c-0.248,0-0.488-0.026-0.725-0.062C113.542,98.081,113.784,98.105,114.032,98.105z"/>
	</g>
	<g>
		<path fill="#FFFFFF" d="M76.021,0.484c-9.019,0-9.019,17.417-9.019,34.26c0,0.977,0,1.954-0.002,2.931c0,0.706,0,1.412,0,2.117
			c0,14.36,0,29.213,9.02,29.213c7.941,0,8.891-13.506,9.003-28.233C84.913,19.765,83.97,0.484,76.021,0.484z"/>
	</g>
	<g>
		<path fill="#FFFFFF" d="M19.005,32.072H0c19.005,0,0,21.381,19.005,21.381H38.01C19.005,53.453,38.01,32.072,19.005,32.072z"/>
	</g>
	<g>
		<g>
			<path fill="#FFFFFF" d="M38.01,10.581c-9.019,0-9.019,10.295-9.019,21.194c0,2.479-0.004,4.972-0.122,7.353
				c0.12,1.195,0.122,2.433,0.122,3.634c0,5.478,0,10.207,9.019,10.207h0.001c8.052,0,8.915-8.208,9.006-17.726
				C46.928,22.459,46.076,10.581,38.01,10.581z"/>
		</g>
	</g>
	<g>
		<path fill="#FFFFFF" d="M57.016,10.096H38.01c19.006,0,0,59.392,19.006,59.392h19.005C57.016,69.488,76.021,10.096,57.016,10.096z
			"/>
	</g>
	<g>
		<path fill="#FFFFFF" d="M76.021,0c19.005,0,0.002,98.59,19.006,98.59h19.005c-19.005,0,0-98.59-19.005-98.59H76.021z"/>
	</g>
</g>
</svg>
