<?xml version="1.0" encoding="utf-8"?>
<!-- Generator: Adobe Illustrator 16.2.1, SVG Export Plug-In . SVG Version: 6.00 Build 0)  -->
<!DOCTYPE svg PUBLIC "-//W3C//DTD SVG 1.1//EN" "http://www.w3.org/Graphics/SVG/1.1/DTD/svg11.dtd">
<svg version="1.1" id="Layer_1" xmlns="http://www.w3.org/2000/svg" xmlns:xlink="http://www.w3.org/1999/xlink" x="0px" y="0px"
	 width="257.953px" height="257.953px" viewBox="0 0 257.953 257.953" enable-background="new 0 0 257.953 257.953"
	 xml:space="preserve">
<polygon display="none" fill="#003399" points="270.709,270.562 -12.755,270.578 -12.755,-12.609 270.709,-12.609 "/>
<path fill="#FFFFFF" d="M200.63,64.176H60.641L55.109,79.75h37.07l-11.048,37.68l-20.454-12.326l-5.479,14.834l21.393,12.975
	L62.656,180.41H48v15.574h53.922V180.41H83.828l9.443-37.381l26.548,16.096l24.507-14.714l9.408,35.999h-17.922v15.574h53.922
	V180.41h-16.172l-13.211-45.617l16.273-9.769l10.963,15.388l8.635-9.291l-16.377-26.608l-24.058,14.526L144.406,79.75h46.531
	l20.584,35.783l11.127-11.887L200.63,64.176z M119.819,140.75L97.28,127.162l11.979-47.412h18.168l12.736,48.723L119.819,140.75z"/>
<path fill="none" stroke="#FFFFFF" d="M178.467,108.798"/>
<path fill="#FFFFFF" d="M118.872,23.228c-9.356,0-16.941,7.585-16.941,16.941c0,9.356,7.584,16.941,16.941,16.941
	c9.356,0,16.94-7.584,16.94-16.941C135.812,30.813,128.228,23.228,118.872,23.228z M118.953,47.417
	c-4.019,0-7.276-3.257-7.276-7.276s3.257-7.276,7.276-7.276c4.018,0,7.276,3.258,7.276,7.276S122.971,47.417,118.953,47.417z"/>
</svg>
