<?xml version="1.0" encoding="utf-8"?>
<!-- Generator: Adobe Illustrator 17.0.0, SVG Export Plug-In . SVG Version: 6.00 Build 0)  -->
<!DOCTYPE svg PUBLIC "-//W3C//DTD SVG 1.1//EN" "http://www.w3.org/Graphics/SVG/1.1/DTD/svg11.dtd">
<svg version="1.1" id="Layer_1" xmlns="http://www.w3.org/2000/svg" xmlns:xlink="http://www.w3.org/1999/xlink" x="0px" y="0px"
	 width="400px" height="400px" viewBox="0 0 400 400" enable-background="new 0 0 400 400" xml:space="preserve">
<rect display="none" fill="#0061AA" width="400" height="400"/>
<rect x="40" y="41.5" fill="none" stroke="#FFFFFF" stroke-width="10" stroke-miterlimit="10" width="320" height="320"/>
<path fill="#FFFFFF" d="M199.732,70.748c-71.232,0-128.977,57.745-128.977,128.977c0,71.231,57.745,128.976,128.977,128.976
	c71.231,0,128.976-57.745,128.976-128.976C328.708,128.493,270.963,70.748,199.732,70.748z M199.405,312.529
	c-62.344,0-112.886-50.54-112.886-112.885S137.061,86.758,199.405,86.758c62.346,0,112.886,50.541,112.886,112.886
	S261.751,312.529,199.405,312.529z"/>
<path fill="#FFFFFF" d="M271.387,134.929l-139.991-0.01l-5.531,15.579h37.07l-11.049,37.68l-20.453-12.326l-5.48,14.834
	l21.394,12.975l-13.935,47.525l-14.657-0.032v15.578h53.922v-15.578h-18.094l9.444-37.377l26.539,16.096l24.516-14.714l9.408,35.995
	h-17.922v15.578h53.922v-15.578h-16.172l-13.213-45.612l16.277-9.769l10.962,15.387l8.635-9.291l-16.378-26.608l-24.059,14.526
	l-11.38-39.289h46.531l20.584,35.783l11.127-11.887L271.387,134.929z M190.583,211.498l-22.547-13.588l11.978-47.412h18.169
	l12.734,48.723L190.583,211.498z"/>
<path fill="none" stroke="#FFFFFF" d="M249.223,179.546"/>
<path fill="#FFFFFF" d="M189.627,93.977c-9.356,0-16.94,7.584-16.94,16.94s7.584,16.941,16.94,16.941s16.941-7.585,16.941-16.941
	S198.983,93.977,189.627,93.977z M189.708,118.165c-4.018,0-7.275-3.258-7.275-7.276s3.257-7.276,7.275-7.276
	c4.019,0,7.276,3.258,7.276,7.276S193.727,118.165,189.708,118.165z"/>
</svg>
