<?xml version="1.0" encoding="iso-8859-1"?>
<!-- Generator: Adobe Illustrator 16.0.0, SVG Export Plug-In . SVG Version: 6.00 Build 0)  -->
<!DOCTYPE svg PUBLIC "-//W3C//DTD SVG 1.1//EN" "http://www.w3.org/Graphics/SVG/1.1/DTD/svg11.dtd">
<svg version="1.1" id="Layer_1" xmlns="http://www.w3.org/2000/svg" xmlns:xlink="http://www.w3.org/1999/xlink" x="0px" y="0px"
	 width="1000px" height="1000px" viewBox="0 0 1000 1000" style="enable-background:new 0 0 1000 1000;" xml:space="preserve">
<rect x="0" y="0.223" style="display:none;fill:#23020C;" width="999.777" height="999.777"/>
<path d="M-706.883,292.895c0,0,85.562-36.574,203.063-105.087s266.939-168.962,394.69-296.712
	c127.75-127.75,228.256-277.244,296.823-394.802s105.198-203.177,105.198-203.177L646.446-353.33L1000,0.224
	c0,0-154.955,349.706-402.514,597.264S0.223,1000,0.223,1000L-353.33,646.447L-706.883,292.895z"/>
<g>
	<g>
		<path style="fill:none;stroke:#333333;stroke-miterlimit:10;" d="M999.777-0.659c0,0-0.198,0.465-0.594,1.372"/>
		<path style="fill:none;stroke:#333333;stroke-miterlimit:10;stroke-dasharray:3.0036,3.0036;" d="M997.979,3.459
			C980.545,42.931,837.098,358.02,598,597.117C355.874,839.243,35.818,983.281,2.976,997.697"/>
		<path style="fill:none;stroke:#333333;stroke-miterlimit:10;" d="M1.596,998.301c-0.907,0.396-1.372,0.594-1.372,0.594"/>
	</g>
</g>
</svg>
