<?xml version="1.0" encoding="utf-8"?>
<!-- Generator: Adobe Illustrator 16.0.0, SVG Export Plug-In . SVG Version: 6.00 Build 0)  -->
<!DOCTYPE svg PUBLIC "-//W3C//DTD SVG 1.1//EN" "http://www.w3.org/Graphics/SVG/1.1/DTD/svg11.dtd">
<svg version="1.1" id="Layer_1" xmlns="http://www.w3.org/2000/svg" xmlns:xlink="http://www.w3.org/1999/xlink" x="0px" y="0px"
	 width="99.999px" height="93.968px" viewBox="18.488 22.527 99.999 93.968" enable-background="new 18.488 22.527 99.999 93.968"
	 xml:space="preserve">
<g id="_x33__4_">
	<path fill="#FFFFFF" d="M48.677,72.803c8.468,0,8.468-9.838,8.468-20.252c0-8.344,0-16.91,4.741-20.252H48.677
		c-4.347,0-6.461,2.596-7.49,6.528c-0.001,0.004-0.002,0.009-0.003,0.013c-0.973,3.727-0.976,8.649-0.976,13.711
		c0,2.39-0.004,4.791-0.115,7.09c0.008,0.078,0.012,0.158,0.019,0.236c0.011,0.145,0.022,0.289,0.032,0.434
		c0.013,0.184,0.021,0.365,0.029,0.549c0.006,0.143,0.013,0.284,0.016,0.428c0.006,0.201,0.009,0.404,0.012,0.606
		c0.001,0.121,0.004,0.241,0.005,0.362c0.003,0.312,0.003,0.621,0.003,0.93c0,2.744,0.001,5.29,1.276,7.072
		c1.118,1.562,3.214,2.537,7.149,2.543L48.677,72.803L48.677,72.803z"/>
	<path fill="#FFFFFF" d="M99.496,22.527h-8.521h-5.509c-1.312,0-2.419,0.403-3.356,1.142C77,27.7,77,41.757,77,55.424
		c0,0.93,0,1.854-0.001,2.777c0,0.702,0.001,1.407,0.001,2.109c0,12.93,0.001,26.271,7.007,27.855
		c0.457,0.103,0.942,0.158,1.46,0.158c2.859,0,4.751-1.912,6.006-5.062c2.461-6.176,2.463-17.124,2.463-27.84
		c0-1.109,0-2.217,0.004-3.316c0.004-1.146,0.01-2.281,0.02-3.406C94.07,36.76,94.8,26.27,99.496,22.527z"/>
	<path fill="#FFFFFF" d="M60.846,83.512c0.188,0.447,0.395,0.867,0.615,1.263c1.246,2.224,3.034,3.55,5.611,3.55h13.816
		c-5.35-4.105-5.349-16.223-5.349-28.014c0-13.772,0-28.013-8.468-28.013c-2.12,0-3.711,0.617-4.901,1.706
		c-3.565,3.258-3.565,10.74-3.565,18.545c0,0.938-0.004,1.877-0.01,2.813c-0.002,0.161,0,0.323-0.002,0.485
		c0.01,1.48,0.01,2.975,0.01,4.463C58.604,69.15,58.607,78.174,60.846,83.512z"/>
	<path fill="#FFFFFF" d="M38.748,63.186c0-5.161,0-9.619-8.467-9.619h-9.619h-2.174c0.989,0.616,1.678,1.398,2.167,2.287
		l0.001,0.002c1.153,2.1,1.159,4.794,1.159,7.33c0,5.16,0,9.619,8.468,9.619h11.283h0.51c-0.186-0.116-0.357-0.24-0.523-0.367
		C38.752,70.292,38.748,66.59,38.748,63.186z"/>
	<path fill="#FFFFFF" d="M113.334,101.157c-0.805-7.045-0.962-15.722-0.995-24.873c-0.007-2.236-0.008-4.498-0.008-6.773
		c0-14.36-0.002-29.021-2.037-38.061c-1.237-5.5-3.228-8.921-6.431-8.921c-7.293,0-8.305,12.402-8.445,26.174
		c-0.011,1.129-0.018,2.266-0.02,3.407c-0.004,1.104-0.004,2.212-0.004,3.317c0,0.949,0,1.894-0.002,2.834c0,0.029,0,0.061,0,0.091
		c-0.002,0.942-0.007,1.878-0.013,2.808c0,0.014,0,0.03,0,0.045c0.015,2.73,0.017,5.51,0.017,8.309
		c0,6.479,0.002,13.014,0.188,19.07c0.171,5.547,0.498,10.692,1.126,15.013c1.132,7.78,3.234,12.899,7.152,12.899h14.623
		C115.691,113.995,114.168,108.448,113.334,101.157z"/>
</g>
</svg>
