<?xml version="1.0" encoding="utf-8"?>
<!-- Generator: Adobe Illustrator 16.0.0, SVG Export Plug-In . SVG Version: 6.00 Build 0)  -->
<!DOCTYPE svg PUBLIC "-//W3C//DTD SVG 1.1//EN" "http://www.w3.org/Graphics/SVG/1.1/DTD/svg11.dtd">
<svg version="1.1" id="Layer_1" xmlns="http://www.w3.org/2000/svg" xmlns:xlink="http://www.w3.org/1999/xlink" x="0px" y="0px"
	 width="200px" height="200px" viewBox="207.486 -89.646 200 200" enable-background="new 207.486 -89.646 200 200"
	 xml:space="preserve">
<circle cx="307.486" cy="10.354" r="100"/>
<g id="_x33__4_">
	<path fill="#FFFFFF" d="M287.677,18.803c8.468,0,8.468-9.838,8.468-20.252c0-8.344,0-16.91,4.741-20.252h-13.209
		c-4.347,0-6.461,2.596-7.489,6.528c-0.002,0.004-0.002,0.009-0.004,0.013c-0.973,3.727-0.976,8.649-0.976,13.711
		c0,2.39-0.004,4.792-0.115,7.09c0.009,0.078,0.013,0.158,0.019,0.236c0.012,0.145,0.022,0.289,0.033,0.434
		c0.013,0.183,0.021,0.365,0.028,0.549c0.007,0.143,0.013,0.284,0.017,0.427c0.006,0.202,0.009,0.405,0.012,0.607
		c0.001,0.121,0.004,0.242,0.005,0.363c0.003,0.312,0.003,0.621,0.003,0.929c0,2.744,0.001,5.29,1.275,7.072
		c1.119,1.562,3.215,2.537,7.149,2.544L287.677,18.803L287.677,18.803z"/>
	<path fill="#FFFFFF" d="M338.496-31.473h-8.521h-5.509c-1.312,0-2.419,0.403-3.356,1.142C316-26.3,316-12.243,316,1.425
		c0,0.929,0,1.854-0.001,2.776c0,0.703,0.001,1.408,0.001,2.11c0,12.929,0.001,26.271,7.007,27.855
		c0.457,0.103,0.942,0.158,1.46,0.158c2.859,0,4.751-1.912,6.006-5.062c2.461-6.176,2.463-17.124,2.463-27.839
		c0-1.11,0-2.217,0.004-3.317c0.004-1.146,0.01-2.282,0.02-3.407C333.07-17.24,333.8-27.73,338.496-31.473z"/>
	<path fill="#FFFFFF" d="M299.846,29.512c0.188,0.448,0.395,0.867,0.615,1.263c1.246,2.223,3.034,3.55,5.611,3.55h13.816
		c-5.35-4.105-5.349-16.223-5.349-28.014c0-13.772,0-28.013-8.468-28.013c-2.12,0-3.711,0.617-4.901,1.706
		c-3.565,3.258-3.565,10.74-3.565,18.546c0,0.938-0.004,1.877-0.01,2.813c-0.002,0.161,0,0.323-0.002,0.485
		c0.01,1.48,0.01,2.974,0.01,4.463C297.604,15.15,297.607,24.174,299.846,29.512z"/>
	<path fill="#FFFFFF" d="M277.748,9.186c0-5.161,0-9.619-8.467-9.619h-9.619h-2.174c0.988,0.616,1.678,1.398,2.166,2.287
		l0.002,0.002c1.152,2.099,1.158,4.794,1.158,7.33c0,5.16,0,9.619,8.469,9.619h11.283h0.51c-0.186-0.116-0.357-0.24-0.523-0.367
		C277.752,16.291,277.748,12.591,277.748,9.186z"/>
	<path fill="#FFFFFF" d="M352.334,47.156c-0.805-7.044-0.962-15.721-0.995-24.873c-0.007-2.236-0.008-4.497-0.008-6.773
		c0-14.36-0.002-29.021-2.037-38.061c-1.237-5.5-3.228-8.921-6.431-8.921c-7.293,0-8.305,12.402-8.445,26.174
		c-0.011,1.129-0.018,2.266-0.02,3.407c-0.004,1.104-0.004,2.212-0.004,3.317c0,0.949,0,1.894-0.002,2.835c0,0.029,0,0.06,0,0.09
		c-0.002,0.942-0.007,1.878-0.013,2.807c0,0.015,0,0.031,0,0.046c0.015,2.73,0.017,5.51,0.017,8.308
		c0,6.479,0.002,13.014,0.188,19.071c0.171,5.546,0.498,10.692,1.126,15.013c1.132,7.779,3.234,12.898,7.152,12.898h14.623
		C354.691,59.995,353.168,54.448,352.334,47.156z"/>
</g>
</svg>
