<?xml version="1.0" encoding="utf-8"?>
<!-- Generator: Adobe Illustrator 16.0.0, SVG Export Plug-In . SVG Version: 6.00 Build 0)  -->
<!DOCTYPE svg PUBLIC "-//W3C//DTD SVG 1.1//EN" "http://www.w3.org/Graphics/SVG/1.1/DTD/svg11.dtd">
<svg version="1.1" id="Layer_1" xmlns="http://www.w3.org/2000/svg" xmlns:xlink="http://www.w3.org/1999/xlink" x="0px" y="0px"
	 width="226.771px" height="226.597px" viewBox="0 0 226.771 226.597" enable-background="new 0 0 226.771 226.597"
	 xml:space="preserve">
<g id="_x33__2_">
	<path fill="#E6E6E5" d="M113.386,0C50.764,0,0,50.766,0,113.387c0,60.507,47.396,109.94,107.087,113.21l0,0l0,0l0,0l0,0
		c0,0-0.704-2.885,9.42-9.674s14.626-6.789,14.626-6.789l-24.046-0.033v0.033c-50.611-3.248-90.658-45.316-90.658-96.747
		c0-53.547,43.409-96.955,96.956-96.955c53.546,0,96.955,43.408,96.955,96.955c0,31.116-14.662,58.808-37.45,76.548
		c2.1,7.4,5.387,11.641,9.788,11.641h1.972c25.69-20.787,42.122-52.566,42.122-88.188C226.771,50.766,176.008,0,113.386,0z"/>
	<path fill="#E6E6E5" d="M107.087,84.252c-25.196,0,0,57.481-25.196,57.481H56.692c25.196,0,0-57.481,25.196-57.481H107.087z"/>
	<path fill="#E6E6E5" d="M157.481,70.867c-25.199,0,0,92.126-25.199,92.126h-25.195c25.195,0,0-92.126,25.195-92.126H157.481z"/>
	<path fill="#FFFFFF" d="M81.889,84.252c25.198,0,0,78.741,25.198,78.741h25.195c-25.195,0,0-78.741-25.195-78.741H81.889z"/>
	<path fill="#FFFFFF" d="M31.496,113.387c25.196,0,0,28.347,25.196,28.347h25.196c-25.196,0,0-28.347-25.196-28.347H31.496z"/>
	<path fill="#FFFFFF" d="M132.282,70.867c25.197,0,0.004,130.708,25.199,130.708h25.196c-25.196,0,0-130.708-25.196-130.708H132.282
		z"/>
</g>
</svg>
