<?xml version="1.0" encoding="utf-8"?>
<!-- Generator: Adobe Illustrator 16.0.0, SVG Export Plug-In . SVG Version: 6.00 Build 0)  -->
<!DOCTYPE svg PUBLIC "-//W3C//DTD SVG 1.1//EN" "http://www.w3.org/Graphics/SVG/1.1/DTD/svg11.dtd">
<svg version="1.1" id="Layer_1" xmlns="http://www.w3.org/2000/svg" xmlns:xlink="http://www.w3.org/1999/xlink" x="0px" y="0px"
	 width="136.974px" height="128.708px" viewBox="0 0 136.974 128.708" enable-background="new 0 0 136.974 128.708"
	 xml:space="preserve">
<g id="_x33__4_">
	<path d="M41.353,68.865c11.599,0,11.599-13.475,11.599-27.74c0-11.429,0-23.162,6.493-27.74H41.351
		c-5.954,0-8.849,3.556-10.258,8.942c-0.001,0.006-0.003,0.012-0.004,0.018c-1.333,5.104-1.337,11.846-1.337,18.78
		c0,3.273-0.006,6.564-0.158,9.712c0.011,0.107,0.016,0.217,0.025,0.324c0.016,0.197,0.031,0.395,0.044,0.594
		c0.017,0.25,0.029,0.5,0.04,0.752c0.008,0.195,0.017,0.389,0.021,0.584c0.008,0.277,0.013,0.555,0.017,0.832
		c0.002,0.166,0.006,0.332,0.007,0.498c0.004,0.426,0.004,0.85,0.004,1.271c0,3.76,0.002,7.246,1.748,9.688
		c1.531,2.139,4.402,3.475,9.793,3.484H41.353z"/>
	<path d="M110.961,0H99.289h-7.545c-1.798,0-3.315,0.552-4.6,1.564c-6.998,5.521-6.998,24.777-6.998,43.498
		c0,1.273,0,2.541-0.002,3.803c0.001,0.963,0.002,1.928,0.002,2.891c0,17.709,0.001,35.984,9.598,38.154
		c0.626,0.141,1.29,0.217,2,0.217c3.916,0,6.507-2.619,8.225-6.932c3.371-8.459,3.375-23.457,3.375-38.133
		c0-1.521,0-3.037,0.004-4.543c0.004-1.569,0.012-3.126,0.026-4.667C103.529,19.496,104.529,5.127,110.961,0z"/>
	<path d="M58.021,83.533c0.258,0.615,0.54,1.189,0.843,1.73c1.707,3.045,4.156,4.863,7.686,4.863h18.923
		c-7.326-5.623-7.325-22.221-7.325-38.371c0-18.865,0-38.371-11.598-38.371c-2.904,0-5.082,0.845-6.713,2.336
		c-4.885,4.463-4.885,14.711-4.885,25.404c0,1.285-0.004,2.572-0.014,3.853c-0.002,0.221,0,0.443-0.002,0.664
		c0.014,2.029,0.014,4.074,0.014,6.113C54.949,63.861,54.955,76.222,58.021,83.533z"/>
	<path d="M27.752,55.693c0-7.07,0-13.176-11.598-13.176H2.978H0c1.354,0.844,2.299,1.916,2.968,3.133l0.001,0.002
		c1.58,2.875,1.587,6.568,1.587,10.041c0,7.068,0,13.174,11.599,13.174h15.455h0.698c-0.255-0.158-0.489-0.328-0.716-0.502
		C27.758,65.425,27.752,60.357,27.752,55.693z"/>
	<path d="M129.916,107.701c-1.102-9.648-1.319-21.533-1.363-34.07c-0.01-3.062-0.011-6.16-0.011-9.277
		c0-19.67-0.002-39.751-2.79-52.134C124.057,4.686,121.331,0,116.943,0c-9.988,0-11.374,16.988-11.567,35.852
		c-0.016,1.547-0.024,3.104-0.028,4.667c-0.004,1.512-0.004,3.03-0.004,4.543c0,1.301-0.001,2.594-0.003,3.883
		c0,0.041,0,0.082,0,0.123c-0.002,1.291-0.008,2.572-0.017,3.844c0,0.021,0,0.043,0,0.064c0.02,3.74,0.021,7.547,0.021,11.379
		c0,8.875,0.003,17.826,0.26,26.123c0.235,7.596,0.683,14.645,1.543,20.561c1.55,10.658,4.431,17.67,9.796,17.67h20.03
		C133.144,125.287,131.057,117.689,129.916,107.701z"/>
</g>
</svg>
