<?xml version="1.0" encoding="utf-8"?>
<!-- Generator: Adobe Illustrator 16.2.1, SVG Export Plug-In . SVG Version: 6.00 Build 0)  -->
<!DOCTYPE svg PUBLIC "-//W3C//DTD SVG 1.1//EN" "http://www.w3.org/Graphics/SVG/1.1/DTD/svg11.dtd">
<svg version="1.1" id="Layer_1" xmlns="http://www.w3.org/2000/svg" xmlns:xlink="http://www.w3.org/1999/xlink" x="0px" y="0px"
	 width="114.032px" height="98.59px" viewBox="0 0 114.032 98.59" enable-background="new 0 0 114.032 98.59" xml:space="preserve">
<rect x="-79.952" y="-109.604" display="none" fill="#1D1D1B" width="283.438" height="283.22"/>
<g id="_x33__2_">
	<g>
		<path fill="#FFFFFF" d="M112.089,97.649c0.033,0.016,0.066,0.032,0.1,0.048C112.156,97.683,112.123,97.665,112.089,97.649z"/>
	</g>
	<g>
		<path fill="#FFFFFF" d="M112.66,97.881c0.089,0.029,0.181,0.051,0.271,0.075C112.84,97.933,112.749,97.909,112.66,97.881z"/>
	</g>
	<g>
		<path fill="#FFFFFF" d="M110.834,96.777c-0.132-0.122-0.266-0.24-0.392-0.38C110.569,96.532,110.701,96.657,110.834,96.777z"/>
	</g>
	<g>
		<path fill="#FFFFFF" d="M114.032,98.106c-0.249,0-0.489-0.027-0.725-0.063C113.542,98.081,113.783,98.106,114.032,98.106z"/>
	</g>
	<g>
		<path fill="#FFFFFF" d="M76.021,0.484c-9.019,0-9.019,17.417-9.019,34.26c0,0.977,0,1.954-0.002,2.931
			c0.001,0.706,0.001,1.412,0.001,2.117c0,14.361,0,29.213,9.019,29.213c7.942,0,8.89-13.506,9.003-28.233
			C84.913,19.765,83.97,0.484,76.021,0.484z"/>
	</g>
	<g>
		<path fill="#FFFFFF" d="M19.005,32.072H0c19.005,0,0,21.381,19.005,21.381H38.01C19.005,53.453,38.01,32.072,19.005,32.072z"/>
	</g>
	<g>
		<g>
			<path fill="#FFFFFF" d="M38.01,10.581c-9.019,0-9.019,10.295-9.019,21.194c0,2.479-0.004,4.972-0.122,7.353
				c0.12,1.195,0.122,2.433,0.122,3.634c0,5.478,0,10.207,9.019,10.207h0.001c8.052,0,8.915-8.208,9.006-17.726
				C46.928,22.459,46.076,10.581,38.01,10.581z"/>
		</g>
	</g>
	<g>
		<path fill="#FFFFFF" d="M57.016,10.096H38.01c19.006,0,0,59.392,19.006,59.392h19.005C57.016,69.488,76.021,10.096,57.016,10.096z
			"/>
	</g>
	<g>
		<path fill="#FFFFFF" d="M76.021,0c19.005,0,0.002,98.59,19.006,98.59h19.005c-19.005,0,0-98.59-19.005-98.59H76.021z"/>
	</g>
</g>
</svg>
