<?xml version="1.0" encoding="utf-8"?>
<!-- Generator: Adobe Illustrator 16.2.1, SVG Export Plug-In . SVG Version: 6.00 Build 0)  -->
<!DOCTYPE svg PUBLIC "-//W3C//DTD SVG 1.1//EN" "http://www.w3.org/Graphics/SVG/1.1/DTD/svg11.dtd">
<svg version="1.1" id="Layer_1" xmlns="http://www.w3.org/2000/svg" xmlns:xlink="http://www.w3.org/1999/xlink" x="0px" y="0px"
	 width="226.771px" height="226.597px" viewBox="0 0 226.771 226.597" enable-background="new 0 0 226.771 226.597"
	 xml:space="preserve">
<rect x="-28.333" y="-28.312" display="none" fill="#1D1D1B" width="283.438" height="283.22"/>
<g id="_x33__2_">
	<g>
		<path fill="#1D1D1B" d="M113.386,28.324c-46.891,0-85.04,38.149-85.04,85.041c0,44.988,35.031,82.18,79.842,84.88
			c0.238-1.046,1.52-3.325,7.282-7.188c3.337-2.238,5.882-3.514,7.704-4.24l-14.055-0.019v0.031l-0.515-0.009
			c-38.598-2.477-68.833-34.742-68.833-73.457c0-40.591,33.023-73.615,73.615-73.615s73.614,33.023,73.614,73.615
			c0,22.666-10.182,43.672-27.955,57.739c0.745,2.876,1.718,5.138,2.995,6.563c0.008,0.008,0.016,0.017,0.022,0.023
			c0.126,0.14,0.26,0.258,0.392,0.38c0.389,0.353,0.805,0.651,1.255,0.872c0.033,0.016,0.066,0.033,0.1,0.048
			c0.153,0.07,0.31,0.131,0.471,0.184c0.089,0.028,0.181,0.052,0.271,0.075c0.124,0.033,0.248,0.064,0.376,0.087
			c0.235,0.036,0.476,0.063,0.725,0.063h1.316c19.995-16.245,31.458-40.304,31.458-66.035
			C198.425,66.473,160.276,28.324,113.386,28.324z"/>
	</g>
	<g>
		<path fill="#1D1D1B" d="M163.708,178.942c0.033,0.016,0.066,0.032,0.1,0.048C163.774,178.976,163.741,178.958,163.708,178.942z"/>
	</g>
	<g>
		<path fill="#1D1D1B" d="M164.278,179.174c0.089,0.029,0.181,0.051,0.271,0.075C164.459,179.226,164.367,179.202,164.278,179.174z"
			/>
	</g>
	<g>
		<path fill="#1D1D1B" d="M162.453,178.07c-0.132-0.122-0.266-0.24-0.392-0.38C162.188,177.825,162.319,177.95,162.453,178.07z"/>
	</g>
	<g>
		<path fill="#1D1D1B" d="M165.65,179.399c-0.249,0-0.489-0.027-0.725-0.063C165.161,179.374,165.401,179.399,165.65,179.399z"/>
	</g>
	<g>
		<path fill="#1D1D1B" d="M127.64,81.777c-9.019,0-9.019,17.417-9.019,34.26c0,0.977,0,1.954-0.002,2.931
			c0.001,0.706,0.001,1.412,0.001,2.117c0,14.361,0,29.213,9.019,29.213c7.942,0,8.89-13.506,9.003-28.233
			C136.531,101.058,135.589,81.777,127.64,81.777z"/>
	</g>
	<g>
		<path fill="#1D1D1B" d="M70.624,113.365H51.619c19.005,0,0,21.381,19.005,21.381h19.005
			C70.624,134.746,89.628,113.365,70.624,113.365z"/>
	</g>
	<g>
		<g>
			<path fill="#1D1D1B" d="M89.628,91.874c-9.019,0-9.019,10.295-9.019,21.194c0,2.479-0.004,4.972-0.122,7.353
				c0.12,1.195,0.122,2.433,0.122,3.634c0,5.478,0,10.207,9.019,10.207h0.001c8.052,0,8.915-8.208,9.006-17.726
				C98.546,103.752,97.695,91.874,89.628,91.874z"/>
		</g>
	</g>
	<g>
		<path fill="#1D1D1B" d="M108.635,91.389H89.628c19.006,0,0,59.392,19.006,59.392h19.005
			C108.635,150.781,127.64,91.389,108.635,91.389z"/>
	</g>
	<g>
		<path fill="#1D1D1B" d="M127.64,81.293c19.005,0,0.002,98.59,19.006,98.59h19.005c-19.005,0,0-98.59-19.005-98.59H127.64z"/>
	</g>
</g>
</svg>
