<?xml version="1.0" encoding="iso-8859-1"?>
<!-- Generator: Adobe Illustrator 16.0.0, SVG Export Plug-In . SVG Version: 6.00 Build 0)  -->
<!DOCTYPE svg PUBLIC "-//W3C//DTD SVG 1.1//EN" "http://www.w3.org/Graphics/SVG/1.1/DTD/svg11.dtd">
<svg version="1.1" id="Layer_1" xmlns="http://www.w3.org/2000/svg" xmlns:xlink="http://www.w3.org/1999/xlink" x="0px" y="0px"
	 width="1641.926px" height="1245.821px" viewBox="0 0 1641.926 1245.821" style="enable-background:new 0 0 1641.926 1245.821;"
	 xml:space="preserve">
<rect x="0.285" y="203.494" style="display:none;stroke:#FFFFFF;stroke-miterlimit:10;" width="1641.357" height="1041.49"/>
<g>
	<g>
		<g>
			<g>
				<g>
					<path style="fill:none;stroke:#333333;stroke-miterlimit:10;" d="M731.455,537.661c-0.517,0.663-1.032,1.318-1.546,1.964"/>
					<path style="fill:none;stroke:#333333;stroke-miterlimit:10;stroke-dasharray:5.049,5.049;" d="M726.721,543.542
						c-108.647,130.382-174.215-105.398-307.774,60.087"/>
					<path style="fill:none;stroke:#333333;stroke-miterlimit:10;" d="M417.368,605.599c-0.515,0.648-1.031,1.302-1.549,1.962"/>
					<g>
						<circle style="fill:#333333;" cx="731.31" cy="537.786" r="3.76"/>
					</g>
					<g>
						<circle style="fill:#333333;" cx="415.963" cy="607.435" r="3.76"/>
					</g>
				</g>
			</g>
			<g>
				<g>
					<path style="fill:none;stroke:#333333;stroke-miterlimit:10;" d="M118.881,763.146c0.454-0.701,0.911-1.398,1.372-2.091"/>
					<path style="fill:none;stroke:#333333;stroke-miterlimit:10;stroke-dasharray:4.9826,4.9826;" d="M123.058,756.934
						C227.14,607.722,478.539,646.161,556.963,646.161c64.682,0,116.29-39.223,133.682-54.243"/>
					<path style="fill:none;stroke:#333333;stroke-miterlimit:10;" d="M692.514,590.282c0.698-0.62,1.317-1.179,1.855-1.671"/>
					<g>
						<circle style="fill:#333333;" cx="119.019" cy="763.013" r="3.76"/>
					</g>
					<g>
						<circle style="fill:#333333;" cx="694.227" cy="588.74" r="3.76"/>
					</g>
				</g>
			</g>
			<g>
				<g>
					<path style="fill:none;stroke:#333333;stroke-miterlimit:10;" d="M519.243,846.625c-0.406,0.733-0.812,1.463-1.217,2.188"/>
					<path style="fill:none;stroke:#333333;stroke-miterlimit:10;stroke-dasharray:5.0243,5.0243;" d="M515.555,853.188
						C371.588,1105.499,224.5,903.762,7.32,1097.721"/>
					<path style="fill:none;stroke:#333333;stroke-miterlimit:10;" d="M5.451,1099.398c-0.618,0.558-1.236,1.118-1.855,1.682"/>
					<g>
						<circle style="fill:#333333;" cx="519.123" cy="846.773" r="3.76"/>
					</g>
					<g>
						<circle style="fill:#333333;" cx="3.76" cy="1100.981" r="3.76"/>
					</g>
				</g>
			</g>
			<g>
				<g>
					<g>
						<path style="fill:none;stroke:#333333;stroke-miterlimit:10;" d="M820.446,327.024c-0.124,0.824-0.25,1.647-0.377,2.469"/>
						<path style="fill:none;stroke:#333333;stroke-miterlimit:10;stroke-dasharray:4.9887,4.9887;" d="M819.278,334.417
							c-19.178,115.6-77.641,204.957-218.314,369.077C482.51,841.69,461.495,1155.278,249.367,1201.81"/>
						<path style="fill:none;stroke:#333333;stroke-miterlimit:10;" d="M246.924,1202.332c-0.814,0.17-1.631,0.335-2.45,0.497"/>
						<g>
							<circle style="fill:#333333;" cx="820.344" cy="327.203" r="3.759"/>
						</g>
						<g>
							<circle style="fill:#333333;" cx="244.646" cy="1202.741" r="3.76"/>
						</g>
					</g>
				</g>
				<g>
					<g>
						<path style="fill:none;stroke:#333333;stroke-miterlimit:10;" d="M459.883,987.282c-0.412,0.73-0.824,1.455-1.235,2.176"/>
						<path style="fill:none;stroke:#333333;stroke-miterlimit:10;stroke-dasharray:4.9642,4.9642;" d="M456.164,993.757
							c-96.616,165.298-177.771,75.398-427.487,245.564"/>
						<path style="fill:none;stroke:#333333;stroke-miterlimit:10;" d="M26.628,1240.721c-0.686,0.47-1.373,0.941-2.062,1.415"/>
						<g>
							<circle style="fill:#333333;" cx="459.743" cy="987.415" r="3.76"/>
						</g>
						<g>
							<circle style="fill:#333333;" cx="24.748" cy="1242.062" r="3.76"/>
						</g>
					</g>
				</g>
			</g>
			<g>
				<g>
					<path style="fill:none;stroke:#333333;stroke-miterlimit:10;" d="M557.99,766.674c-0.391,0.739-0.787,1.473-1.188,2.2"/>
					<path style="fill:none;stroke:#333333;stroke-miterlimit:10;stroke-dasharray:4.98,4.98;" d="M554.328,773.197
						c-87.873,147.687-370.857,34.332-452.634,174.771"/>
					<path style="fill:none;stroke:#333333;stroke-miterlimit:10;" d="M100.463,950.13c-0.404,0.725-0.803,1.455-1.196,2.193"/>
					<g>
						<circle style="fill:#333333;" cx="557.851" cy="766.812" r="3.76"/>
					</g>
					<g>
						<circle style="fill:#333333;" cx="99.41" cy="952.183" r="3.76"/>
					</g>
				</g>
			</g>
			<g>
				<g>
					<path style="fill:none;stroke:#333333;stroke-miterlimit:10;" d="M578.936,645.384c-0.786,0.286-1.569,0.571-2.35,0.855"/>
					<path style="fill:none;stroke:#333333;stroke-miterlimit:10;stroke-dasharray:4.9739,4.9739;" d="M571.912,647.941
						C366.209,722.9,371.154,726.331,240.597,819.845"/>
					<path style="fill:none;stroke:#333333;stroke-miterlimit:10;" d="M238.572,821.295c-0.675,0.482-1.354,0.969-2.037,1.456"/>
					<g>
						<circle style="fill:#333333;" cx="578.763" cy="645.461" r="3.76"/>
					</g>
					<g>
						<circle style="fill:#333333;" cx="236.687" cy="822.639" r="3.76"/>
					</g>
				</g>
			</g>
			<g>
				<g>
					<path style="fill:none;stroke:#333333;stroke-miterlimit:10;" d="M780.332,899.975c-0.146-0.823-0.29-1.645-0.432-2.464"/>
					<path style="fill:none;stroke:#333333;stroke-miterlimit:10;stroke-dasharray:4.9841,4.9841;" d="M779.062,892.597
						c-35.456-212.457,41.9-312.102,41.9-489.103c0-127.579,0-174.781,0-191.453"/>
					<path style="fill:none;stroke:#333333;stroke-miterlimit:10;" d="M820.963,209.554c0-0.97,0-1.796,0-2.496"/>
					<g>
						<circle style="fill:#333333;" cx="780.34" cy="899.787" r="3.76"/>
					</g>
					<g>
						<circle style="fill:#333333;" cx="820.963" cy="207.254" r="3.76"/>
					</g>
				</g>
			</g>
			<g>
				<g>
					<g>
						<path style="fill:none;stroke:#333333;stroke-miterlimit:10;" d="M694.619,588.85c-0.467,0.56-0.996,1.205-1.579,1.934"/>
						<path style="fill:none;stroke:#333333;stroke-miterlimit:10;stroke-dasharray:5.0302,5.0302;" d="M689.973,594.767
							c-20.178,27.146-72.998,116.584-6.788,240.727c66.711,125.083,22.164,201.489,5.522,223.423"/>
						<path style="fill:none;stroke:#333333;stroke-miterlimit:10;" d="M687.161,1060.906c-0.583,0.729-1.114,1.371-1.585,1.928"/>
						<g>
							<circle style="fill:#333333;" cx="694.529" cy="589.027" r="3.76"/>
						</g>
						<g>
							<circle style="fill:#333333;" cx="685.679" cy="1062.68" r="3.76"/>
						</g>
					</g>
				</g>
				<g>
					<g>
						<path style="fill:none;stroke:#333333;stroke-miterlimit:10;" d="M658.134,773.692c0.1,0.721,0.212,1.548,0.336,2.474"/>
						<path style="fill:none;stroke:#333333;stroke-miterlimit:10;stroke-dasharray:4.932,4.932;" d="M659.101,781.055
							c5.035,40.294,18.875,181.481-25.808,238.053"/>
						<path style="fill:none;stroke:#333333;stroke-miterlimit:10;" d="M631.733,1021.02c-0.539,0.64-1.086,1.267-1.642,1.883"/>
						<g>
							<circle style="fill:#333333;" cx="658.139" cy="773.886" r="3.76"/>
						</g>
						<g>
							<circle style="fill:#333333;" cx="630.211" cy="1022.76" r="3.76"/>
						</g>
					</g>
				</g>
			</g>
			<g>
				<g>
					<path style="fill:none;stroke:#333333;stroke-miterlimit:10;" d="M593.473,714.035c-0.362,0.752-0.718,1.506-1.07,2.26"/>
					<path style="fill:none;stroke:#333333;stroke-miterlimit:10;stroke-dasharray:5.0417,5.0417;" d="M590.319,720.889
						c-86.003,195.431,134.58,442.996-27.204,507.005"/>
					<path style="fill:none;stroke:#333333;stroke-miterlimit:10;" d="M560.768,1228.799c-0.773,0.291-1.556,0.578-2.346,0.861"/>
					<g>
						<circle style="fill:#333333;" cx="593.442" cy="714.227" r="3.76"/>
					</g>
					<g>
						<circle style="fill:#333333;" cx="558.579" cy="1229.541" r="3.76"/>
					</g>
				</g>
			</g>
			<g>
				<g>
					<path style="fill:none;stroke:#333333;stroke-miterlimit:10;" d="M575.578,894.354c0.103,0.721,0.218,1.546,0.343,2.473"/>
					<path style="fill:none;stroke:#333333;stroke-miterlimit:10;stroke-dasharray:5.0215,5.0215;" d="M576.557,901.804
						c5.665,46.636,19.876,228.536-93.712,285.403"/>
					<path style="fill:none;stroke:#333333;stroke-miterlimit:10;" d="M480.583,1188.315c-0.75,0.358-1.505,0.713-2.266,1.061"/>
					<g>
						<circle style="fill:#333333;" cx="575.561" cy="894.55" r="3.76"/>
					</g>
					<g>
						<circle style="fill:#333333;" cx="478.464" cy="1189.262" r="3.76"/>
					</g>
				</g>
			</g>
			<g>
				<g>
					<path style="fill:none;stroke:#333333;stroke-miterlimit:10;" d="M815.352,486.52c-0.208,0.812-0.417,1.619-0.626,2.42"/>
					<path style="fill:none;stroke:#333333;stroke-miterlimit:10;stroke-dasharray:4.9561,4.9561;" d="M813.452,493.73
						c-38.935,143.874-94.357,113.74-97.116,220.777"/>
					<path style="fill:none;stroke:#333333;stroke-miterlimit:10;" d="M716.282,716.985c-0.015,0.825-0.026,1.658-0.035,2.5"/>
					<g>
						<circle style="fill:#333333;" cx="815.269" cy="486.692" r="3.76"/>
					</g>
					<g>
						<circle style="fill:#333333;" cx="716.289" cy="719.297" r="3.76"/>
					</g>
				</g>
			</g>
		</g>
		<g>
			<g>
				<g>
					<path style="fill:none;stroke:#333333;stroke-miterlimit:10;" d="M910.47,537.661c0.517,0.663,1.032,1.318,1.546,1.964"/>
					<path style="fill:none;stroke:#333333;stroke-miterlimit:10;stroke-dasharray:5.049,5.049;" d="M915.204,543.542
						c108.647,130.382,174.215-105.398,307.774,60.087"/>
					<path style="fill:none;stroke:#333333;stroke-miterlimit:10;" d="M1224.557,605.599c0.516,0.648,1.032,1.302,1.549,1.962"/>
					<g>
						<circle style="fill:#333333;" cx="910.615" cy="537.786" r="3.76"/>
					</g>
					<g>
						<circle style="fill:#333333;" cx="1225.961" cy="607.435" r="3.759"/>
					</g>
				</g>
			</g>
			<g>
				<g>
					<path style="fill:none;stroke:#333333;stroke-miterlimit:10;" d="M1523.045,763.146c-0.455-0.701-0.912-1.398-1.372-2.091"/>
					<path style="fill:none;stroke:#333333;stroke-miterlimit:10;stroke-dasharray:4.9826,4.9826;" d="M1518.867,756.934
						c-104.081-149.211-355.48-110.772-433.904-110.772c-64.682,0-116.29-39.223-133.682-54.243"/>
					<path style="fill:none;stroke:#333333;stroke-miterlimit:10;" d="M949.411,590.282c-0.697-0.62-1.316-1.179-1.854-1.671"/>
					<g>
						<circle style="fill:#333333;" cx="1522.907" cy="763.013" r="3.76"/>
					</g>
					<g>
						<circle style="fill:#333333;" cx="947.698" cy="588.74" r="3.76"/>
					</g>
				</g>
			</g>
			<g>
				<g>
					<path style="fill:none;stroke:#333333;stroke-miterlimit:10;" d="M1122.683,846.625c0.405,0.733,0.812,1.463,1.217,2.188"/>
					<path style="fill:none;stroke:#333333;stroke-miterlimit:10;stroke-dasharray:5.0243,5.0243;" d="M1126.37,853.188
						c143.968,252.311,291.056,50.573,508.235,244.532"/>
					<path style="fill:none;stroke:#333333;stroke-miterlimit:10;" d="M1636.475,1099.398c0.618,0.558,1.236,1.118,1.855,1.682"/>
					<g>
						<circle style="fill:#333333;" cx="1122.803" cy="846.773" r="3.76"/>
					</g>
					<g>
						<circle style="fill:#333333;" cx="1638.166" cy="1100.981" r="3.76"/>
					</g>
				</g>
			</g>
			<g>
				<g>
					<g>
						<path style="fill:none;stroke:#333333;stroke-miterlimit:10;" d="M821.48,327.024c0.124,0.824,0.25,1.647,0.377,2.469"/>
						<path style="fill:none;stroke:#333333;stroke-miterlimit:10;stroke-dasharray:4.9887,4.9887;" d="M822.648,334.417
							c19.179,115.6,77.641,204.957,218.314,369.077c118.454,138.196,139.468,451.784,351.596,498.315"/>
						<path style="fill:none;stroke:#333333;stroke-miterlimit:10;" d="M1395.002,1202.332c0.814,0.17,1.631,0.335,2.45,0.497"/>
						<g>
							<circle style="fill:#333333;" cx="821.581" cy="327.203" r="3.76"/>
						</g>
						<g>
							<circle style="fill:#333333;" cx="1397.279" cy="1202.741" r="3.76"/>
						</g>
					</g>
				</g>
				<g>
					<g>
						<path style="fill:none;stroke:#333333;stroke-miterlimit:10;" d="M1182.042,987.282c0.412,0.73,0.824,1.455,1.235,2.176"/>
						<path style="fill:none;stroke:#333333;stroke-miterlimit:10;stroke-dasharray:4.9642,4.9642;" d="M1185.761,993.757
							c96.616,165.298,177.771,75.398,427.487,245.564"/>
						<path style="fill:none;stroke:#333333;stroke-miterlimit:10;" d="M1615.297,1240.721c0.686,0.47,1.373,0.941,2.062,1.415"/>
						<g>
							<circle style="fill:#333333;" cx="1182.181" cy="987.415" r="3.76"/>
						</g>
						<g>
							<circle style="fill:#333333;" cx="1617.177" cy="1242.062" r="3.76"/>
						</g>
					</g>
				</g>
			</g>
			<g>
				<g>
					<path style="fill:none;stroke:#333333;stroke-miterlimit:10;" d="M1083.936,766.674c0.392,0.739,0.787,1.473,1.188,2.2"/>
					<path style="fill:none;stroke:#333333;stroke-miterlimit:10;stroke-dasharray:4.98,4.98;" d="M1087.598,773.197
						c87.874,147.687,370.857,34.332,452.633,174.771"/>
					<path style="fill:none;stroke:#333333;stroke-miterlimit:10;" d="M1541.461,950.13c0.404,0.725,0.803,1.455,1.196,2.193"/>
					<g>
						<circle style="fill:#333333;" cx="1084.075" cy="766.812" r="3.76"/>
					</g>
					<g>
						<circle style="fill:#333333;" cx="1542.515" cy="952.183" r="3.76"/>
					</g>
				</g>
			</g>
			<g>
				<g>
					<path style="fill:none;stroke:#333333;stroke-miterlimit:10;" d="M1062.991,645.384c0.786,0.286,1.569,0.571,2.35,0.855"/>
					<path style="fill:none;stroke:#333333;stroke-miterlimit:10;stroke-dasharray:4.9739,4.9739;" d="M1070.015,647.941
						c205.703,74.959,200.757,78.389,331.313,171.903"/>
					<path style="fill:none;stroke:#333333;stroke-miterlimit:10;" d="M1403.353,821.295c0.675,0.482,1.354,0.969,2.036,1.456"/>
					<g>
						<circle style="fill:#333333;" cx="1063.163" cy="645.461" r="3.76"/>
					</g>
					<g>
						<circle style="fill:#333333;" cx="1405.238" cy="822.639" r="3.76"/>
					</g>
				</g>
			</g>
			<g>
				<g>
					<path style="fill:none;stroke:#333333;stroke-miterlimit:10;" d="M861.595,899.975c0.146-0.823,0.289-1.645,0.432-2.464"/>
					<path style="fill:none;stroke:#333333;stroke-miterlimit:10;stroke-dasharray:4.9841,4.9841;" d="M862.863,892.597
						c35.456-212.457-41.9-312.102-41.9-489.103c0-127.579,0-174.781,0-191.453"/>
					<path style="fill:none;stroke:#333333;stroke-miterlimit:10;" d="M820.963,209.554c0-0.97,0-1.796,0-2.496"/>
					<g>
						<circle style="fill:#333333;" cx="861.585" cy="899.787" r="3.759"/>
					</g>
					<g>
						<circle style="fill:#333333;" cx="820.963" cy="207.254" r="3.76"/>
					</g>
				</g>
			</g>
			<g>
				<g>
					<g>
						<path style="fill:none;stroke:#333333;stroke-miterlimit:10;" d="M947.307,588.85c0.467,0.56,0.996,1.205,1.579,1.934"/>
						<path style="fill:none;stroke:#333333;stroke-miterlimit:10;stroke-dasharray:5.0302,5.0302;" d="M951.952,594.767
							c20.178,27.146,72.997,116.584,6.788,240.727c-66.711,125.082-22.163,201.489-5.522,223.423"/>
						<path style="fill:none;stroke:#333333;stroke-miterlimit:10;" d="M954.766,1060.906c0.582,0.729,1.113,1.371,1.584,1.928"/>
						<g>
							<circle style="fill:#333333;" cx="947.396" cy="589.027" r="3.76"/>
						</g>
						<g>
							<circle style="fill:#333333;" cx="956.247" cy="1062.68" r="3.76"/>
						</g>
					</g>
				</g>
				<g>
					<g>
						<path style="fill:none;stroke:#333333;stroke-miterlimit:10;" d="M983.791,773.692c-0.1,0.721-0.213,1.548-0.336,2.474"/>
						<path style="fill:none;stroke:#333333;stroke-miterlimit:10;stroke-dasharray:4.932,4.932;" d="M982.824,781.055
							c-5.035,40.294-18.875,181.481,25.808,238.053"/>
						<path style="fill:none;stroke:#333333;stroke-miterlimit:10;" d="M1010.191,1021.02c0.539,0.64,1.087,1.267,1.643,1.883"/>
						<g>
							<circle style="fill:#333333;" cx="983.786" cy="773.886" r="3.76"/>
						</g>
						<g>
							<circle style="fill:#333333;" cx="1011.714" cy="1022.76" r="3.759"/>
						</g>
					</g>
				</g>
			</g>
			<g>
				<g>
					<path style="fill:none;stroke:#333333;stroke-miterlimit:10;" d="M1048.454,714.035c0.361,0.752,0.718,1.506,1.07,2.26"/>
					<path style="fill:none;stroke:#333333;stroke-miterlimit:10;stroke-dasharray:5.0417,5.0417;" d="M1051.607,720.889
						c86.002,195.431-134.58,442.996,27.204,507.005"/>
					<path style="fill:none;stroke:#333333;stroke-miterlimit:10;" d="M1081.159,1228.799c0.773,0.291,1.556,0.578,2.346,0.861"/>
					<g>
						<circle style="fill:#333333;" cx="1048.484" cy="714.227" r="3.76"/>
					</g>
					<g>
						<circle style="fill:#333333;" cx="1083.348" cy="1229.541" r="3.76"/>
					</g>
				</g>
			</g>
			<g>
				<g>
					<path style="fill:none;stroke:#333333;stroke-miterlimit:10;" d="M1066.348,894.354c-0.103,0.721-0.218,1.546-0.343,2.473"/>
					<path style="fill:none;stroke:#333333;stroke-miterlimit:10;stroke-dasharray:5.0215,5.0215;" d="M1065.369,901.804
						c-5.665,46.636-19.877,228.536,93.712,285.403"/>
					<path style="fill:none;stroke:#333333;stroke-miterlimit:10;" d="M1161.343,1188.315c0.75,0.358,1.505,0.713,2.266,1.061"/>
					<g>
						<circle style="fill:#333333;" cx="1066.365" cy="894.55" r="3.76"/>
					</g>
					<g>
						<circle style="fill:#333333;" cx="1163.462" cy="1189.262" r="3.76"/>
					</g>
				</g>
			</g>
			<g>
				<g>
					<path style="fill:none;stroke:#333333;stroke-miterlimit:10;" d="M826.574,486.52c0.208,0.812,0.417,1.619,0.626,2.42"/>
					<path style="fill:none;stroke:#333333;stroke-miterlimit:10;stroke-dasharray:4.9561,4.9561;" d="M828.474,493.73
						c38.936,143.874,94.357,113.74,97.116,220.777"/>
					<path style="fill:none;stroke:#333333;stroke-miterlimit:10;" d="M925.645,716.985c0.015,0.825,0.026,1.658,0.034,2.5"/>
					<g>
						<circle style="fill:#333333;" cx="826.657" cy="486.692" r="3.76"/>
					</g>
					<g>
						<circle style="fill:#333333;" cx="925.637" cy="719.297" r="3.76"/>
					</g>
				</g>
			</g>
		</g>
	</g>
	<g>
		<g>
			<line style="fill:none;stroke:#333333;stroke-miterlimit:10;" x1="820.963" y1="207.066" x2="820.963" y2="209.566"/>
			
				<line style="fill:none;stroke:#333333;stroke-miterlimit:10;stroke-dasharray:5.0212,5.0212;" x1="820.963" y1="214.587" x2="820.963" y2="1236.402"/>
			<line style="fill:none;stroke:#333333;stroke-miterlimit:10;" x1="820.963" y1="1238.913" x2="820.963" y2="1241.413"/>
			<g>
				<circle style="fill:#333333;" cx="820.963" cy="207.254" r="3.76"/>
			</g>
			<g>
				<circle style="fill:#333333;" cx="820.963" cy="1241.225" r="3.76"/>
			</g>
		</g>
	</g>
</g>
<g>
	<g>
		<g>
			<g>
				<g>
					<path style="fill:none;stroke:#333333;stroke-miterlimit:10;" d="M792.01,141.844c-0.678-0.524-1.35-1.016-2.017-1.479"/>
					<path style="fill:none;stroke:#333333;stroke-miterlimit:10;stroke-dasharray:4.7967,4.7967;" d="M785.903,137.862
						c-27.378-14.533-46.487,19.77-80.458-3.645"/>
					<path style="fill:none;stroke:#333333;stroke-miterlimit:10;" d="M703.493,132.82c-0.655-0.486-1.316-0.994-1.982-1.524"/>
					<g>
						<circle style="fill:#333333;" cx="791.855" cy="141.74" r="3.76"/>
					</g>
					<g>
						<circle style="fill:#333333;" cx="701.675" cy="131.389" r="3.76"/>
					</g>
				</g>
			</g>
			<g>
				<g>
					<path style="fill:none;stroke:#333333;stroke-miterlimit:10;" d="M612.303,100.366c0.611,0.562,1.238,1.109,1.88,1.643"/>
					<path style="fill:none;stroke:#333333;stroke-miterlimit:10;stroke-dasharray:5.144,5.144;" d="M618.287,105.106
						c34.21,23.46,101.494,16.749,123.476,16.749c14.576,0,26.938,4.426,34.4,7.902"/>
					<path style="fill:none;stroke:#333333;stroke-miterlimit:10;" d="M778.478,130.879c0.827,0.417,1.566,0.809,2.209,1.162"/>
					<g>
						<circle style="fill:#333333;" cx="612.452" cy="100.483" r="3.76"/>
					</g>
					<g>
						<circle style="fill:#333333;" cx="780.521" cy="131.952" r="3.76"/>
					</g>
				</g>
			</g>
			<g>
				<g>
					<path style="fill:none;stroke:#333333;stroke-miterlimit:10;" d="M728.658,79.66c-0.555-0.636-1.11-1.257-1.666-1.864"/>
					<path style="fill:none;stroke:#333333;stroke-miterlimit:10;stroke-dasharray:5.0682,5.0682;" d="M723.475,74.146
						c-40.116-39.452-81.815-7.604-141.056-39.459"/>
					<path style="fill:none;stroke:#333333;stroke-miterlimit:10;" d="M580.197,33.467c-0.721-0.404-1.444-0.818-2.17-1.242"/>
					<g>
						<circle style="fill:#333333;" cx="728.501" cy="79.547" r="3.76"/>
					</g>
					<g>
						<circle style="fill:#333333;" cx="578.211" cy="32.282" r="3.76"/>
					</g>
				</g>
			</g>
			<g>
				<g>
					<g>
						<path style="fill:none;stroke:#333333;stroke-miterlimit:10;" d="M820.124,182.919c-0.218-0.805-0.45-1.604-0.698-2.398"/>
						<path style="fill:none;stroke:#333333;stroke-miterlimit:10;stroke-dasharray:4.9619,4.9619;" d="M817.766,175.85
							c-7.764-19.402-25.807-36.686-62.803-65.461c-34.401-26.756-41.408-86.386-99.554-98.611"/>
						<path style="fill:none;stroke:#333333;stroke-miterlimit:10;" d="M652.968,11.298c-0.812-0.149-1.634-0.288-2.465-0.418"/>
						<g>
							<circle style="fill:#333333;" cx="820.051" cy="182.741" r="3.76"/>
						</g>
						<g>
							<circle style="fill:#333333;" cx="650.68" cy="10.952" r="3.76"/>
						</g>
					</g>
				</g>
				<g>
					<g>
						<path style="fill:none;stroke:#333333;stroke-miterlimit:10;" d="M710.829,51.553c-0.566-0.631-1.13-1.243-1.693-1.837"/>
						<path style="fill:none;stroke:#333333;stroke-miterlimit:10;stroke-dasharray:4.8887,4.8887;" d="M705.666,46.275
							C679.732,22.16,654.529,34.234,588.938,5.739"/>
						<path style="fill:none;stroke:#333333;stroke-miterlimit:10;" d="M586.697,4.756c-0.756-0.334-1.517-0.674-2.283-1.019"/>
						<g>
							<circle style="fill:#333333;" cx="710.695" cy="51.418" r="3.76"/>
						</g>
						<g>
							<circle style="fill:#333333;" cx="584.608" cy="3.76" r="3.76"/>
						</g>
					</g>
				</g>
			</g>
			<g>
				<g>
					<path style="fill:none;stroke:#333333;stroke-miterlimit:10;" d="M740.25,95.667c-0.575-0.6-1.175-1.178-1.799-1.733"/>
					<path style="fill:none;stroke:#333333;stroke-miterlimit:10;stroke-dasharray:5.0289,5.0289;" d="M734.466,90.876
						c-29.675-19.655-97.192-5.389-124.349-24.93"/>
					<path style="fill:none;stroke:#333333;stroke-miterlimit:10;" d="M608.13,64.393c-0.639-0.542-1.25-1.109-1.832-1.699"/>
					<g>
						<circle style="fill:#333333;" cx="740.116" cy="95.532" r="3.76"/>
					</g>
					<g>
						<circle style="fill:#333333;" cx="606.436" cy="62.821" r="3.76"/>
					</g>
				</g>
			</g>
			<g>
				<g>
					<path style="fill:none;stroke:#333333;stroke-miterlimit:10;" d="M745.89,121.412c-0.821-0.199-1.63-0.396-2.429-0.591"/>
					<path style="fill:none;stroke:#333333;stroke-miterlimit:10;stroke-dasharray:5.2059,5.2059;" d="M738.4,119.586
						c-50.917-12.466-53.929-14.408-85.814-29.722"/>
					<path style="fill:none;stroke:#333333;stroke-miterlimit:10;" d="M650.242,88.739c-0.737-0.353-1.488-0.712-2.255-1.08"/>
					<g>
						<circle style="fill:#333333;" cx="745.715" cy="121.342" r="3.76"/>
					</g>
					<g>
						<circle style="fill:#333333;" cx="648.156" cy="87.742" r="3.76"/>
					</g>
				</g>
			</g>
			<g>
				<g>
					<path style="fill:none;stroke:#333333;stroke-miterlimit:10;" d="M808.081,73.85c-0.195,0.822-0.376,1.635-0.546,2.44"/>
					<path style="fill:none;stroke:#333333;stroke-miterlimit:10;stroke-dasharray:4.8166,4.8166;" d="M806.66,81.027
						c-5.821,36.847,14.303,56.396,14.303,89.361c0,16.031,0,25.717,0,31.529"/>
					<path style="fill:none;stroke:#333333;stroke-miterlimit:10;" d="M820.963,204.322c0,0.978,0,1.802,0,2.498"/>
					<g>
						<circle style="fill:#333333;" cx="808.117" cy="74.052" r="3.76"/>
					</g>
					<g>
						<circle style="fill:#333333;" cx="820.963" cy="206.629" r="3.76"/>
					</g>
				</g>
			</g>
			<g>
				<g>
					<g>
						<path style="fill:none;stroke:#333333;stroke-miterlimit:10;" d="M781.034,131.554c-0.542-0.509-1.138-1.099-1.765-1.768"/>
						<path style="fill:none;stroke:#333333;stroke-miterlimit:10;stroke-dasharray:5.0893,5.0893;" d="M776.037,125.861
							c-6.095-8.478-11.333-23.215,3.593-41.873c15.346-19.183,11.067-32.641,5.986-39.853"/>
						<path style="fill:none;stroke:#333333;stroke-miterlimit:10;" d="M784.051,42.119c-0.593-0.696-1.17-1.305-1.701-1.826"/>
						<g>
							<circle style="fill:#333333;" cx="780.928" cy="131.385" r="3.76"/>
						</g>
						<g>
							<circle style="fill:#333333;" cx="782.466" cy="40.456" r="3.76"/>
						</g>
					</g>
				</g>
				<g>
					<g>
						<path style="fill:none;stroke:#333333;stroke-miterlimit:10;" d="M772.643,93.551c0.126-0.729,0.261-1.555,0.396-2.466"/>
						<path style="fill:none;stroke:#333333;stroke-miterlimit:10;stroke-dasharray:4.7101,4.7101;" d="M773.636,86.416
							c1.062-9.988,1.261-24.792-4.86-34.392"/>
						<path style="fill:none;stroke:#333333;stroke-miterlimit:10;" d="M767.41,50.105c-0.52-0.653-1.076-1.274-1.671-1.859"/>
						<g>
							<circle style="fill:#333333;" cx="772.65" cy="93.359" r="3.76"/>
						</g>
						<g>
							<circle style="fill:#333333;" cx="765.862" cy="48.383" r="3.76"/>
						</g>
					</g>
				</g>
			</g>
			<g>
				<g>
					<path style="fill:none;stroke:#333333;stroke-miterlimit:10;" d="M751.171,105.974c-0.446-0.719-0.861-1.441-1.248-2.167"/>
					<path style="fill:none;stroke:#333333;stroke-miterlimit:10;stroke-dasharray:5.1313,5.1313;" d="M747.832,99.125
						c-13.047-35.818,36.051-77.454,1.616-91.684"/>
					<path style="fill:none;stroke:#333333;stroke-miterlimit:10;" d="M747.045,6.54c-0.761-0.259-1.556-0.507-2.388-0.744"/>
					<g>
						<circle style="fill:#333333;" cx="751.104" cy="105.793" r="3.76"/>
					</g>
					<g>
						<circle style="fill:#333333;" cx="744.823" cy="5.881" r="3.76"/>
					</g>
				</g>
			</g>
			<g>
				<g>
					<path style="fill:none;stroke:#333333;stroke-miterlimit:10;" d="M747.865,69.416c0.117-0.729,0.237-1.558,0.35-2.473"/>
					<path style="fill:none;stroke:#333333;stroke-miterlimit:10;stroke-dasharray:4.8129,4.8129;" d="M748.65,62.154
						c0.782-13.413-1.562-35.831-23.523-46.264"/>
					<path style="fill:none;stroke:#333333;stroke-miterlimit:10;" d="M722.927,14.913c-0.756-0.313-1.534-0.613-2.333-0.899"/>
					<g>
						<circle style="fill:#333333;" cx="747.847" cy="69.22" r="3.76"/>
					</g>
					<g>
						<circle style="fill:#333333;" cx="720.763" cy="14.083" r="3.76"/>
					</g>
				</g>
			</g>
			<g>
				<g>
					<path style="fill:none;stroke:#333333;stroke-miterlimit:10;" d="M818.218,151.155c-0.335-0.789-0.674-1.55-1.016-2.285"/>
					<path style="fill:none;stroke:#333333;stroke-miterlimit:10;stroke-dasharray:5.1312,5.1312;" d="M814.861,144.303
						c-9.617-17.014-20.862-17.315-24.281-29.272"/>
					<path style="fill:none;stroke:#333333;stroke-miterlimit:10;" d="M790.012,112.525c-0.135-0.78-0.242-1.605-0.32-2.479"/>
					<g>
						<circle style="fill:#333333;" cx="818.095" cy="151.006" r="3.76"/>
					</g>
					<g>
						<circle style="fill:#333333;" cx="789.729" cy="110.231" r="3.76"/>
					</g>
				</g>
			</g>
		</g>
		<g>
			<g>
				<g>
					<path style="fill:none;stroke:#333333;stroke-miterlimit:10;" d="M849.916,141.844c0.678-0.524,1.35-1.016,2.017-1.479"/>
					<path style="fill:none;stroke:#333333;stroke-miterlimit:10;stroke-dasharray:4.7967,4.7967;" d="M856.023,137.862
						c27.379-14.533,46.487,19.77,80.459-3.645"/>
					<path style="fill:none;stroke:#333333;stroke-miterlimit:10;" d="M938.434,132.82c0.655-0.486,1.315-0.994,1.982-1.524"/>
					<g>
						<circle style="fill:#333333;" cx="850.072" cy="141.74" r="3.76"/>
					</g>
					<g>
						<circle style="fill:#333333;" cx="940.251" cy="131.389" r="3.76"/>
					</g>
				</g>
			</g>
			<g>
				<g>
					<path style="fill:none;stroke:#333333;stroke-miterlimit:10;" d="M1029.624,100.366c-0.611,0.562-1.238,1.109-1.881,1.643"/>
					<path style="fill:none;stroke:#333333;stroke-miterlimit:10;stroke-dasharray:5.144,5.144;" d="M1023.639,105.106
						c-34.21,23.46-101.493,16.749-123.476,16.749c-14.576,0-26.938,4.426-34.4,7.902"/>
					<path style="fill:none;stroke:#333333;stroke-miterlimit:10;" d="M863.449,130.879c-0.828,0.417-1.566,0.809-2.21,1.162"/>
					<g>
						<circle style="fill:#333333;" cx="1029.475" cy="100.483" r="3.76"/>
					</g>
					<g>
						<circle style="fill:#333333;" cx="861.406" cy="131.952" r="3.76"/>
					</g>
				</g>
			</g>
			<g>
				<g>
					<path style="fill:none;stroke:#333333;stroke-miterlimit:10;" d="M913.268,79.66c0.556-0.636,1.11-1.257,1.666-1.864"/>
					<path style="fill:none;stroke:#333333;stroke-miterlimit:10;stroke-dasharray:5.0682,5.0682;" d="M918.451,74.146
						c40.117-39.452,81.815-7.604,141.057-39.459"/>
					<path style="fill:none;stroke:#333333;stroke-miterlimit:10;" d="M1061.729,33.467c0.721-0.404,1.444-0.818,2.17-1.242"/>
					<g>
						<circle style="fill:#333333;" cx="913.425" cy="79.547" r="3.76"/>
					</g>
					<g>
						<circle style="fill:#333333;" cx="1063.714" cy="32.282" r="3.76"/>
					</g>
				</g>
			</g>
			<g>
				<g>
					<g>
						<path style="fill:none;stroke:#333333;stroke-miterlimit:10;" d="M821.802,182.919c0.218-0.805,0.45-1.604,0.698-2.398"/>
						<path style="fill:none;stroke:#333333;stroke-miterlimit:10;stroke-dasharray:4.9619,4.9619;" d="M824.16,175.85
							c7.765-19.402,25.807-36.686,62.803-65.461c34.401-26.756,41.408-86.386,99.554-98.611"/>
						<path style="fill:none;stroke:#333333;stroke-miterlimit:10;" d="M988.958,11.298c0.812-0.149,1.634-0.288,2.465-0.418"/>
						<g>
							<circle style="fill:#333333;" cx="821.875" cy="182.741" r="3.76"/>
						</g>
						<g>
							<circle style="fill:#333333;" cx="991.246" cy="10.952" r="3.76"/>
						</g>
					</g>
				</g>
				<g>
					<g>
						<path style="fill:none;stroke:#333333;stroke-miterlimit:10;" d="M931.097,51.553c0.566-0.631,1.131-1.243,1.693-1.837"/>
						<path style="fill:none;stroke:#333333;stroke-miterlimit:10;stroke-dasharray:4.8887,4.8887;" d="M936.26,46.275
							c25.934-24.115,51.137-12.042,116.729-40.537"/>
						<path style="fill:none;stroke:#333333;stroke-miterlimit:10;" d="M1055.229,4.756c0.755-0.334,1.517-0.674,2.282-1.019"/>
						<g>
							<circle style="fill:#333333;" cx="931.231" cy="51.418" r="3.76"/>
						</g>
						<g>
							<circle style="fill:#333333;" cx="1057.317" cy="3.76" r="3.76"/>
						</g>
					</g>
				</g>
			</g>
			<g>
				<g>
					<path style="fill:none;stroke:#333333;stroke-miterlimit:10;" d="M901.676,95.667c0.575-0.6,1.175-1.178,1.799-1.733"/>
					<path style="fill:none;stroke:#333333;stroke-miterlimit:10;stroke-dasharray:5.0289,5.0289;" d="M907.46,90.877
						c29.675-19.655,97.192-5.389,124.349-24.931"/>
					<path style="fill:none;stroke:#333333;stroke-miterlimit:10;" d="M1033.796,64.393c0.639-0.542,1.25-1.109,1.833-1.699"/>
					<g>
						<circle style="fill:#333333;" cx="901.81" cy="95.532" r="3.759"/>
					</g>
					<g>
						<circle style="fill:#333333;" cx="1035.491" cy="62.821" r="3.76"/>
					</g>
				</g>
			</g>
			<g>
				<g>
					<path style="fill:none;stroke:#333333;stroke-miterlimit:10;" d="M896.036,121.412c0.821-0.199,1.631-0.396,2.43-0.591"/>
					<path style="fill:none;stroke:#333333;stroke-miterlimit:10;stroke-dasharray:5.2059,5.2059;" d="M903.526,119.586
						c50.917-12.466,53.929-14.408,85.814-29.722"/>
					<path style="fill:none;stroke:#333333;stroke-miterlimit:10;" d="M991.685,88.739c0.736-0.353,1.488-0.712,2.255-1.08"/>
					<g>
						<circle style="fill:#333333;" cx="896.212" cy="121.342" r="3.76"/>
					</g>
					<g>
						<circle style="fill:#333333;" cx="993.771" cy="87.742" r="3.76"/>
					</g>
				</g>
			</g>
			<g>
				<g>
					<path style="fill:none;stroke:#333333;stroke-miterlimit:10;" d="M833.846,73.85c0.194,0.822,0.376,1.635,0.546,2.44"/>
					<path style="fill:none;stroke:#333333;stroke-miterlimit:10;stroke-dasharray:4.8166,4.8166;" d="M835.266,81.027
						c5.822,36.847-14.303,56.396-14.303,89.361c0,16.031,0,25.717,0,31.529"/>
					<path style="fill:none;stroke:#333333;stroke-miterlimit:10;" d="M820.963,204.322c0,0.978,0,1.802,0,2.498"/>
					<g>
						<circle style="fill:#333333;" cx="833.809" cy="74.052" r="3.76"/>
					</g>
					<g>
						<circle style="fill:#333333;" cx="820.963" cy="206.629" r="3.76"/>
					</g>
				</g>
			</g>
			<g>
				<g>
					<g>
						<path style="fill:none;stroke:#333333;stroke-miterlimit:10;" d="M860.892,131.554c0.542-0.509,1.139-1.099,1.766-1.768"/>
						<path style="fill:none;stroke:#333333;stroke-miterlimit:10;stroke-dasharray:5.0893,5.0893;" d="M865.89,125.861
							c6.095-8.477,11.333-23.215-3.593-41.873c-15.346-19.183-11.067-32.641-5.986-39.853"/>
						<path style="fill:none;stroke:#333333;stroke-miterlimit:10;" d="M857.876,42.119c0.592-0.696,1.169-1.305,1.7-1.826"/>
						<g>
							<circle style="fill:#333333;" cx="860.999" cy="131.385" r="3.76"/>
						</g>
						<g>
							<circle style="fill:#333333;" cx="859.46" cy="40.456" r="3.76"/>
						</g>
					</g>
				</g>
				<g>
					<g>
						<path style="fill:none;stroke:#333333;stroke-miterlimit:10;" d="M869.283,93.551c-0.126-0.729-0.262-1.555-0.397-2.466"/>
						<path style="fill:none;stroke:#333333;stroke-miterlimit:10;stroke-dasharray:4.7101,4.7101;" d="M868.29,86.416
							c-1.062-9.988-1.261-24.792,4.86-34.392"/>
						<path style="fill:none;stroke:#333333;stroke-miterlimit:10;" d="M874.517,50.105c0.52-0.653,1.075-1.274,1.671-1.859"/>
						<g>
							<circle style="fill:#333333;" cx="869.276" cy="93.359" r="3.76"/>
						</g>
						<g>
							<circle style="fill:#333333;" cx="876.064" cy="48.383" r="3.76"/>
						</g>
					</g>
				</g>
			</g>
			<g>
				<g>
					<path style="fill:none;stroke:#333333;stroke-miterlimit:10;" d="M890.755,105.974c0.446-0.719,0.862-1.441,1.248-2.167"/>
					<path style="fill:none;stroke:#333333;stroke-miterlimit:10;stroke-dasharray:5.1313,5.1313;" d="M894.095,99.125
						c13.046-35.818-36.051-77.454-1.616-91.684"/>
					<path style="fill:none;stroke:#333333;stroke-miterlimit:10;" d="M894.881,6.54c0.761-0.259,1.557-0.507,2.388-0.744"/>
					<g>
						<circle style="fill:#333333;" cx="890.823" cy="105.793" r="3.76"/>
					</g>
					<g>
						<circle style="fill:#333333;" cx="897.103" cy="5.881" r="3.76"/>
					</g>
				</g>
			</g>
			<g>
				<g>
					<path style="fill:none;stroke:#333333;stroke-miterlimit:10;" d="M894.061,69.416c-0.116-0.729-0.236-1.558-0.35-2.473"/>
					<path style="fill:none;stroke:#333333;stroke-miterlimit:10;stroke-dasharray:4.8129,4.8129;" d="M893.275,62.154
						c-0.781-13.413,1.562-35.831,23.524-46.264"/>
					<path style="fill:none;stroke:#333333;stroke-miterlimit:10;" d="M918.999,14.913c0.756-0.313,1.533-0.613,2.333-0.899"/>
					<g>
						<circle style="fill:#333333;" cx="894.078" cy="69.22" r="3.76"/>
					</g>
					<g>
						<circle style="fill:#333333;" cx="921.162" cy="14.083" r="3.76"/>
					</g>
				</g>
			</g>
			<g>
				<g>
					<path style="fill:none;stroke:#333333;stroke-miterlimit:10;" d="M823.709,151.155c0.335-0.789,0.674-1.55,1.016-2.285"/>
					<path style="fill:none;stroke:#333333;stroke-miterlimit:10;stroke-dasharray:5.1312,5.1312;" d="M827.065,144.303
						c9.616-17.014,20.862-17.315,24.281-29.272"/>
					<path style="fill:none;stroke:#333333;stroke-miterlimit:10;" d="M851.914,112.525c0.136-0.78,0.243-1.605,0.32-2.479"/>
					<g>
						<circle style="fill:#333333;" cx="823.831" cy="151.006" r="3.759"/>
					</g>
					<g>
						<circle style="fill:#333333;" cx="852.198" cy="110.231" r="3.76"/>
					</g>
				</g>
			</g>
		</g>
	</g>
	<g>
		<g>
			<line style="fill:none;stroke:#333333;stroke-miterlimit:10;" x1="820.963" y1="206.817" x2="820.963" y2="204.317"/>
			
				<line style="fill:none;stroke:#333333;stroke-miterlimit:10;stroke-dasharray:5.0296,5.0296;" x1="820.963" y1="199.287" x2="820.963" y2="10.677"/>
			<line style="fill:none;stroke:#333333;stroke-miterlimit:10;" x1="820.963" y1="8.162" x2="820.963" y2="5.662"/>
			<g>
				<circle style="fill:#333333;" cx="820.963" cy="206.629" r="3.76"/>
			</g>
			<g>
				<circle style="fill:#333333;" cx="820.963" cy="5.85" r="3.76"/>
			</g>
		</g>
	</g>
</g>
</svg>
