<?xml version="1.0" encoding="iso-8859-1"?>
<!-- Generator: Adobe Illustrator 16.0.0, SVG Export Plug-In . SVG Version: 6.00 Build 0)  -->
<!DOCTYPE svg PUBLIC "-//W3C//DTD SVG 1.1//EN" "http://www.w3.org/Graphics/SVG/1.1/DTD/svg11.dtd">
<svg version="1.1" id="Layer_1" xmlns="http://www.w3.org/2000/svg" xmlns:xlink="http://www.w3.org/1999/xlink" x="0px" y="0px"
	 width="1641.357px" height="1041.49px" viewBox="0 0 1641.357 1041.49" style="enable-background:new 0 0 1641.357 1041.49;"
	 xml:space="preserve">
<rect style="display:none;stroke:#FFFFFF;stroke-miterlimit:10;" width="1641.357" height="1041.49"/>
<g>
	<g>
		<g>
			<g>
				<g>
					<path style="fill:none;stroke:#333333;stroke-miterlimit:10;" d="M731.17,334.167c-0.517,0.663-1.032,1.318-1.546,1.964"/>
					<path style="fill:none;stroke:#333333;stroke-miterlimit:10;stroke-dasharray:5.049,5.049;" d="M726.436,340.047
						c-108.647,130.382-174.215-105.398-307.774,60.087"/>
					<path style="fill:none;stroke:#333333;stroke-miterlimit:10;" d="M417.083,402.105c-0.515,0.648-1.031,1.302-1.549,1.962"/>
					<g>
						<circle style="fill:#333333;" cx="731.025" cy="334.292" r="3.76"/>
					</g>
					<g>
						<circle style="fill:#333333;" cx="415.678" cy="403.941" r="3.76"/>
					</g>
				</g>
			</g>
			<g>
				<g>
					<path style="fill:none;stroke:#333333;stroke-miterlimit:10;" d="M118.597,559.652c0.454-0.701,0.911-1.398,1.372-2.091"/>
					<path style="fill:none;stroke:#333333;stroke-miterlimit:10;stroke-dasharray:4.9826,4.9826;" d="M122.773,553.439
						c104.082-149.211,355.481-110.772,433.905-110.772c64.682,0,116.29-39.223,133.682-54.243"/>
					<path style="fill:none;stroke:#333333;stroke-miterlimit:10;" d="M692.229,386.788c0.698-0.62,1.317-1.179,1.855-1.671"/>
					<g>
						<circle style="fill:#333333;" cx="118.734" cy="559.519" r="3.76"/>
					</g>
					<g>
						<circle style="fill:#333333;" cx="693.943" cy="385.246" r="3.76"/>
					</g>
				</g>
			</g>
			<g>
				<g>
					<path style="fill:none;stroke:#333333;stroke-miterlimit:10;" d="M518.958,643.131c-0.406,0.733-0.812,1.463-1.217,2.188"/>
					<path style="fill:none;stroke:#333333;stroke-miterlimit:10;stroke-dasharray:5.0243,5.0243;" d="M515.271,649.694
						C371.303,902.005,224.215,700.268,7.036,894.227"/>
					<path style="fill:none;stroke:#333333;stroke-miterlimit:10;" d="M5.167,895.904c-0.618,0.558-1.236,1.118-1.855,1.682"/>
					<g>
						<circle style="fill:#333333;" cx="518.838" cy="643.279" r="3.76"/>
					</g>
					<g>
						<circle style="fill:#333333;" cx="3.475" cy="897.487" r="3.76"/>
					</g>
				</g>
			</g>
			<g>
				<g>
					<g>
						<path style="fill:none;stroke:#333333;stroke-miterlimit:10;" d="M820.161,123.53c-0.124,0.824-0.25,1.647-0.377,2.469"/>
						<path style="fill:none;stroke:#333333;stroke-miterlimit:10;stroke-dasharray:4.9887,4.9887;" d="M818.993,130.923
							C799.815,246.523,741.352,335.88,600.679,500C482.225,638.196,461.21,951.784,249.083,998.315"/>
						<path style="fill:none;stroke:#333333;stroke-miterlimit:10;" d="M246.639,998.838c-0.814,0.17-1.631,0.335-2.45,0.497"/>
						<g>
							<circle style="fill:#333333;" cx="820.06" cy="123.708" r="3.759"/>
						</g>
						<g>
							<circle style="fill:#333333;" cx="244.362" cy="999.247" r="3.76"/>
						</g>
					</g>
				</g>
				<g>
					<g>
						<path style="fill:none;stroke:#333333;stroke-miterlimit:10;" d="M459.598,783.788c-0.412,0.73-0.824,1.455-1.235,2.176"/>
						<path style="fill:none;stroke:#333333;stroke-miterlimit:10;stroke-dasharray:4.9642,4.9642;" d="M455.879,790.263
							c-96.616,165.298-177.771,75.398-427.487,245.564"/>
						<path style="fill:none;stroke:#333333;stroke-miterlimit:10;" d="M26.343,1037.227c-0.686,0.47-1.373,0.941-2.062,1.415"/>
						<g>
							<circle style="fill:#333333;" cx="459.459" cy="783.92" r="3.76"/>
						</g>
						<g>
							<circle style="fill:#333333;" cx="24.463" cy="1038.567" r="3.76"/>
						</g>
					</g>
				</g>
			</g>
			<g>
				<g>
					<path style="fill:none;stroke:#333333;stroke-miterlimit:10;" d="M557.706,563.18c-0.391,0.739-0.787,1.473-1.188,2.2"/>
					<path style="fill:none;stroke:#333333;stroke-miterlimit:10;stroke-dasharray:4.98,4.98;" d="M554.043,569.703
						C466.17,717.39,183.186,604.035,101.41,744.475"/>
					<path style="fill:none;stroke:#333333;stroke-miterlimit:10;" d="M100.179,746.636c-0.404,0.725-0.803,1.455-1.196,2.193"/>
					<g>
						<circle style="fill:#333333;" cx="557.566" cy="563.318" r="3.76"/>
					</g>
					<g>
						<circle style="fill:#333333;" cx="99.125" cy="748.688" r="3.76"/>
					</g>
				</g>
			</g>
			<g>
				<g>
					<path style="fill:none;stroke:#333333;stroke-miterlimit:10;" d="M578.651,441.89c-0.786,0.286-1.569,0.571-2.35,0.855"/>
					<path style="fill:none;stroke:#333333;stroke-miterlimit:10;stroke-dasharray:4.9739,4.9739;" d="M571.627,444.447
						c-205.703,74.959-200.758,78.389-331.315,171.903"/>
					<path style="fill:none;stroke:#333333;stroke-miterlimit:10;" d="M238.288,617.801c-0.675,0.482-1.354,0.969-2.037,1.456"/>
					<g>
						<circle style="fill:#333333;" cx="578.479" cy="441.967" r="3.76"/>
					</g>
					<g>
						<circle style="fill:#333333;" cx="236.402" cy="619.145" r="3.76"/>
					</g>
				</g>
			</g>
			<g>
				<g>
					<path style="fill:none;stroke:#333333;stroke-miterlimit:10;" d="M780.047,696.48c-0.146-0.823-0.29-1.645-0.432-2.464"/>
					<path style="fill:none;stroke:#333333;stroke-miterlimit:10;stroke-dasharray:4.9841,4.9841;" d="M778.778,689.103
						c-35.456-212.457,41.9-312.102,41.9-489.103c0-127.579,0-174.781,0-191.453"/>
					<path style="fill:none;stroke:#333333;stroke-miterlimit:10;" d="M820.678,6.06c0-0.97,0-1.796,0-2.496"/>
					<g>
						<circle style="fill:#333333;" cx="780.056" cy="696.292" r="3.76"/>
					</g>
					<g>
						<circle style="fill:#333333;" cx="820.678" cy="3.76" r="3.76"/>
					</g>
				</g>
			</g>
			<g>
				<g>
					<g>
						<path style="fill:none;stroke:#333333;stroke-miterlimit:10;" d="M694.334,385.356c-0.467,0.56-0.996,1.205-1.579,1.934"/>
						<path style="fill:none;stroke:#333333;stroke-miterlimit:10;stroke-dasharray:5.0302,5.0302;" d="M689.688,391.273
							c-20.178,27.146-72.998,116.584-6.788,240.727c66.711,125.083,22.164,201.489,5.522,223.423"/>
						<path style="fill:none;stroke:#333333;stroke-miterlimit:10;" d="M686.876,857.412c-0.583,0.729-1.114,1.371-1.585,1.928"/>
						<g>
							<circle style="fill:#333333;" cx="694.245" cy="385.533" r="3.76"/>
						</g>
						<g>
							<circle style="fill:#333333;" cx="685.395" cy="859.186" r="3.76"/>
						</g>
					</g>
				</g>
				<g>
					<g>
						<path style="fill:none;stroke:#333333;stroke-miterlimit:10;" d="M657.849,570.198c0.1,0.721,0.212,1.548,0.336,2.474"/>
						<path style="fill:none;stroke:#333333;stroke-miterlimit:10;stroke-dasharray:4.932,4.932;" d="M658.816,577.561
							c5.035,40.294,18.875,181.481-25.808,238.053"/>
						<path style="fill:none;stroke:#333333;stroke-miterlimit:10;" d="M631.449,817.525c-0.539,0.64-1.086,1.267-1.642,1.883"/>
						<g>
							<circle style="fill:#333333;" cx="657.854" cy="570.392" r="3.76"/>
						</g>
						<g>
							<circle style="fill:#333333;" cx="629.926" cy="819.266" r="3.76"/>
						</g>
					</g>
				</g>
			</g>
			<g>
				<g>
					<path style="fill:none;stroke:#333333;stroke-miterlimit:10;" d="M593.188,510.541c-0.362,0.752-0.718,1.506-1.07,2.26"/>
					<path style="fill:none;stroke:#333333;stroke-miterlimit:10;stroke-dasharray:5.0417,5.0417;" d="M590.035,517.395
						c-86.003,195.431,134.58,442.996-27.204,507.005"/>
					<path style="fill:none;stroke:#333333;stroke-miterlimit:10;" d="M560.483,1025.305c-0.773,0.291-1.556,0.578-2.346,0.861"/>
					<g>
						<circle style="fill:#333333;" cx="593.157" cy="510.733" r="3.76"/>
					</g>
					<g>
						<circle style="fill:#333333;" cx="558.294" cy="1026.047" r="3.76"/>
					</g>
				</g>
			</g>
			<g>
				<g>
					<path style="fill:none;stroke:#333333;stroke-miterlimit:10;" d="M575.293,690.859c0.103,0.721,0.218,1.546,0.343,2.473"/>
					<path style="fill:none;stroke:#333333;stroke-miterlimit:10;stroke-dasharray:5.0215,5.0215;" d="M576.272,698.31
						c5.665,46.636,19.876,228.536-93.712,285.403"/>
					<path style="fill:none;stroke:#333333;stroke-miterlimit:10;" d="M480.298,984.821c-0.75,0.358-1.505,0.713-2.266,1.061"/>
					<g>
						<circle style="fill:#333333;" cx="575.276" cy="691.056" r="3.76"/>
					</g>
					<g>
						<circle style="fill:#333333;" cx="478.179" cy="985.768" r="3.76"/>
					</g>
				</g>
			</g>
			<g>
				<g>
					<path style="fill:none;stroke:#333333;stroke-miterlimit:10;" d="M815.067,283.025c-0.208,0.812-0.417,1.619-0.626,2.42"/>
					<path style="fill:none;stroke:#333333;stroke-miterlimit:10;stroke-dasharray:4.9561,4.9561;" d="M813.167,290.236
						c-38.935,143.874-94.357,113.74-97.116,220.777"/>
					<path style="fill:none;stroke:#333333;stroke-miterlimit:10;" d="M715.997,513.491c-0.015,0.825-0.026,1.658-0.035,2.5"/>
					<g>
						<circle style="fill:#333333;" cx="814.985" cy="283.198" r="3.76"/>
					</g>
					<g>
						<circle style="fill:#333333;" cx="716.004" cy="515.803" r="3.76"/>
					</g>
				</g>
			</g>
		</g>
		<g>
			<g>
				<g>
					<path style="fill:none;stroke:#333333;stroke-miterlimit:10;" d="M910.185,334.167c0.517,0.663,1.032,1.318,1.546,1.964"/>
					<path style="fill:none;stroke:#333333;stroke-miterlimit:10;stroke-dasharray:5.049,5.049;" d="M914.919,340.047
						c108.647,130.382,174.215-105.398,307.774,60.087"/>
					<path style="fill:none;stroke:#333333;stroke-miterlimit:10;" d="M1224.272,402.105c0.516,0.648,1.032,1.302,1.549,1.962"/>
					<g>
						<circle style="fill:#333333;" cx="910.33" cy="334.292" r="3.76"/>
					</g>
					<g>
						<circle style="fill:#333333;" cx="1225.677" cy="403.941" r="3.759"/>
					</g>
				</g>
			</g>
			<g>
				<g>
					<path style="fill:none;stroke:#333333;stroke-miterlimit:10;" d="M1522.76,559.652c-0.455-0.701-0.912-1.398-1.372-2.091"/>
					<path style="fill:none;stroke:#333333;stroke-miterlimit:10;stroke-dasharray:4.9826,4.9826;" d="M1518.583,553.439
						c-104.081-149.211-355.48-110.772-433.904-110.772c-64.682,0-116.29-39.223-133.682-54.243"/>
					<path style="fill:none;stroke:#333333;stroke-miterlimit:10;" d="M949.126,386.788c-0.697-0.62-1.316-1.179-1.854-1.671"/>
					<g>
						<circle style="fill:#333333;" cx="1522.622" cy="559.519" r="3.76"/>
					</g>
					<g>
						<circle style="fill:#333333;" cx="947.414" cy="385.246" r="3.76"/>
					</g>
				</g>
			</g>
			<g>
				<g>
					<path style="fill:none;stroke:#333333;stroke-miterlimit:10;" d="M1122.398,643.131c0.405,0.733,0.812,1.463,1.217,2.188"/>
					<path style="fill:none;stroke:#333333;stroke-miterlimit:10;stroke-dasharray:5.0243,5.0243;" d="M1126.085,649.694
						c143.968,252.311,291.056,50.573,508.235,244.532"/>
					<path style="fill:none;stroke:#333333;stroke-miterlimit:10;" d="M1636.19,895.904c0.618,0.558,1.236,1.118,1.855,1.682"/>
					<g>
						<circle style="fill:#333333;" cx="1122.519" cy="643.279" r="3.76"/>
					</g>
					<g>
						<circle style="fill:#333333;" cx="1637.881" cy="897.487" r="3.76"/>
					</g>
				</g>
			</g>
			<g>
				<g>
					<g>
						<path style="fill:none;stroke:#333333;stroke-miterlimit:10;" d="M821.195,123.53c0.124,0.824,0.25,1.647,0.377,2.469"/>
						<path style="fill:none;stroke:#333333;stroke-miterlimit:10;stroke-dasharray:4.9887,4.9887;" d="M822.364,130.923
							c19.179,115.6,77.641,204.957,218.314,369.077c118.454,138.196,139.468,451.784,351.596,498.315"/>
						<path style="fill:none;stroke:#333333;stroke-miterlimit:10;" d="M1394.717,998.838c0.814,0.17,1.631,0.335,2.45,0.497"/>
						<g>
							<circle style="fill:#333333;" cx="821.297" cy="123.708" r="3.76"/>
						</g>
						<g>
							<circle style="fill:#333333;" cx="1396.995" cy="999.247" r="3.76"/>
						</g>
					</g>
				</g>
				<g>
					<g>
						<path style="fill:none;stroke:#333333;stroke-miterlimit:10;" d="M1181.757,783.788c0.412,0.73,0.824,1.455,1.235,2.176"/>
						<path style="fill:none;stroke:#333333;stroke-miterlimit:10;stroke-dasharray:4.9642,4.9642;" d="M1185.476,790.263
							c96.616,165.298,177.771,75.398,427.487,245.564"/>
						<path style="fill:none;stroke:#333333;stroke-miterlimit:10;" d="M1615.012,1037.227c0.686,0.47,1.373,0.941,2.062,1.415"/>
						<g>
							<circle style="fill:#333333;" cx="1181.896" cy="783.92" r="3.76"/>
						</g>
						<g>
							<circle style="fill:#333333;" cx="1616.892" cy="1038.567" r="3.76"/>
						</g>
					</g>
				</g>
			</g>
			<g>
				<g>
					<path style="fill:none;stroke:#333333;stroke-miterlimit:10;" d="M1083.651,563.18c0.392,0.739,0.787,1.473,1.188,2.2"/>
					<path style="fill:none;stroke:#333333;stroke-miterlimit:10;stroke-dasharray:4.98,4.98;" d="M1087.313,569.703
						c87.874,147.687,370.857,34.332,452.633,174.771"/>
					<path style="fill:none;stroke:#333333;stroke-miterlimit:10;" d="M1541.176,746.636c0.404,0.725,0.803,1.455,1.196,2.193"/>
					<g>
						<circle style="fill:#333333;" cx="1083.79" cy="563.317" r="3.76"/>
					</g>
					<g>
						<circle style="fill:#333333;" cx="1542.23" cy="748.688" r="3.76"/>
					</g>
				</g>
			</g>
			<g>
				<g>
					<path style="fill:none;stroke:#333333;stroke-miterlimit:10;" d="M1062.707,441.89c0.786,0.286,1.569,0.571,2.35,0.855"/>
					<path style="fill:none;stroke:#333333;stroke-miterlimit:10;stroke-dasharray:4.9739,4.9739;" d="M1069.73,444.447
						c205.703,74.959,200.757,78.389,331.313,171.903"/>
					<path style="fill:none;stroke:#333333;stroke-miterlimit:10;" d="M1403.068,617.801c0.675,0.482,1.354,0.969,2.036,1.456"/>
					<g>
						<circle style="fill:#333333;" cx="1062.878" cy="441.967" r="3.76"/>
					</g>
					<g>
						<circle style="fill:#333333;" cx="1404.954" cy="619.145" r="3.76"/>
					</g>
				</g>
			</g>
			<g>
				<g>
					<path style="fill:none;stroke:#333333;stroke-miterlimit:10;" d="M861.31,696.48c0.146-0.823,0.289-1.645,0.432-2.464"/>
					<path style="fill:none;stroke:#333333;stroke-miterlimit:10;stroke-dasharray:4.9841,4.9841;" d="M862.579,689.103
						c35.456-212.457-41.9-312.102-41.9-489.103c0-127.579,0-174.781,0-191.453"/>
					<path style="fill:none;stroke:#333333;stroke-miterlimit:10;" d="M820.678,6.06c0-0.97,0-1.796,0-2.496"/>
					<g>
						<circle style="fill:#333333;" cx="861.301" cy="696.292" r="3.759"/>
					</g>
					<g>
						<circle style="fill:#333333;" cx="820.678" cy="3.76" r="3.76"/>
					</g>
				</g>
			</g>
			<g>
				<g>
					<g>
						<path style="fill:none;stroke:#333333;stroke-miterlimit:10;" d="M947.022,385.356c0.467,0.56,0.996,1.205,1.579,1.934"/>
						<path style="fill:none;stroke:#333333;stroke-miterlimit:10;stroke-dasharray:5.0302,5.0302;" d="M951.667,391.273
							c20.178,27.146,72.997,116.584,6.788,240.727c-66.711,125.082-22.163,201.489-5.522,223.423"/>
						<path style="fill:none;stroke:#333333;stroke-miterlimit:10;" d="M954.481,857.412c0.582,0.729,1.113,1.371,1.584,1.928"/>
						<g>
							<circle style="fill:#333333;" cx="947.112" cy="385.533" r="3.76"/>
						</g>
						<g>
							<circle style="fill:#333333;" cx="955.962" cy="859.186" r="3.76"/>
						</g>
					</g>
				</g>
				<g>
					<g>
						<path style="fill:none;stroke:#333333;stroke-miterlimit:10;" d="M983.506,570.198c-0.1,0.721-0.213,1.548-0.336,2.474"/>
						<path style="fill:none;stroke:#333333;stroke-miterlimit:10;stroke-dasharray:4.932,4.932;" d="M982.54,577.561
							c-5.035,40.294-18.875,181.481,25.808,238.053"/>
						<path style="fill:none;stroke:#333333;stroke-miterlimit:10;" d="M1009.907,817.525c0.539,0.64,1.087,1.267,1.643,1.883"/>
						<g>
							<circle style="fill:#333333;" cx="983.501" cy="570.392" r="3.76"/>
						</g>
						<g>
							<circle style="fill:#333333;" cx="1011.43" cy="819.266" r="3.759"/>
						</g>
					</g>
				</g>
			</g>
			<g>
				<g>
					<path style="fill:none;stroke:#333333;stroke-miterlimit:10;" d="M1048.169,510.541c0.361,0.752,0.718,1.506,1.07,2.26"/>
					<path style="fill:none;stroke:#333333;stroke-miterlimit:10;stroke-dasharray:5.0417,5.0417;" d="M1051.323,517.395
						c86.002,195.431-134.58,442.996,27.204,507.005"/>
					<path style="fill:none;stroke:#333333;stroke-miterlimit:10;" d="M1080.875,1025.305c0.773,0.291,1.556,0.578,2.346,0.861"/>
					<g>
						<circle style="fill:#333333;" cx="1048.2" cy="510.733" r="3.76"/>
					</g>
					<g>
						<circle style="fill:#333333;" cx="1083.063" cy="1026.047" r="3.76"/>
					</g>
				</g>
			</g>
			<g>
				<g>
					<path style="fill:none;stroke:#333333;stroke-miterlimit:10;" d="M1066.063,690.859c-0.103,0.721-0.218,1.546-0.343,2.473"/>
					<path style="fill:none;stroke:#333333;stroke-miterlimit:10;stroke-dasharray:5.0215,5.0215;" d="M1065.084,698.31
						c-5.665,46.636-19.877,228.536,93.712,285.403"/>
					<path style="fill:none;stroke:#333333;stroke-miterlimit:10;" d="M1161.058,984.821c0.75,0.358,1.505,0.713,2.266,1.061"/>
					<g>
						<circle style="fill:#333333;" cx="1066.08" cy="691.056" r="3.76"/>
					</g>
					<g>
						<circle style="fill:#333333;" cx="1163.177" cy="985.768" r="3.76"/>
					</g>
				</g>
			</g>
			<g>
				<g>
					<path style="fill:none;stroke:#333333;stroke-miterlimit:10;" d="M826.29,283.025c0.208,0.812,0.417,1.619,0.626,2.42"/>
					<path style="fill:none;stroke:#333333;stroke-miterlimit:10;stroke-dasharray:4.9561,4.9561;" d="M828.189,290.236
						c38.936,143.874,94.357,113.74,97.116,220.777"/>
					<path style="fill:none;stroke:#333333;stroke-miterlimit:10;" d="M925.36,513.491c0.015,0.825,0.026,1.658,0.034,2.5"/>
					<g>
						<circle style="fill:#333333;" cx="826.372" cy="283.198" r="3.76"/>
					</g>
					<g>
						<circle style="fill:#333333;" cx="925.353" cy="515.803" r="3.76"/>
					</g>
				</g>
			</g>
		</g>
	</g>
	<g>
		<g>
			<line style="fill:none;stroke:#333333;stroke-miterlimit:10;" x1="820.678" y1="3.572" x2="820.678" y2="6.072"/>
			
				<line style="fill:none;stroke:#333333;stroke-miterlimit:10;stroke-dasharray:5.0212,5.0212;" x1="820.678" y1="11.093" x2="820.678" y2="1032.908"/>
			<line style="fill:none;stroke:#333333;stroke-miterlimit:10;" x1="820.678" y1="1035.419" x2="820.678" y2="1037.919"/>
			<g>
				<circle style="fill:#333333;" cx="820.678" cy="3.76" r="3.76"/>
			</g>
			<g>
				<circle style="fill:#333333;" cx="820.678" cy="1037.73" r="3.76"/>
			</g>
		</g>
	</g>
</g>
</svg>
